<?xml version="1.0" encoding="UTF-8" standalone="no"?>
<svg
   xmlns:dc="http://purl.org/dc/elements/1.1/"
   xmlns:cc="http://creativecommons.org/ns#"
   xmlns:rdf="http://www.w3.org/1999/02/22-rdf-syntax-ns#"
   xmlns:svg="http://www.w3.org/2000/svg"
   xmlns="http://www.w3.org/2000/svg"
   xmlns:sodipodi="http://sodipodi.sourceforge.net/DTD/sodipodi-0.dtd"
   xmlns:inkscape="http://www.inkscape.org/namespaces/inkscape"
   version="1.1"
   id="svg62"
   width="1387"
   height="470"
   viewBox="0 0 1387 470"
   sodipodi:docname="sarasa_database.svg"
   inkscape:version="1.0.2 (e86c870879, 2021-01-15)">
  <metadata
     id="metadata68">
    <rdf:RDF>
      <cc:Work
         rdf:about="">
        <dc:format>image/svg+xml</dc:format>
        <dc:type
           rdf:resource="http://purl.org/dc/dcmitype/StillImage" />
        <dc:title></dc:title>
      </cc:Work>
    </rdf:RDF>
  </metadata>
  <defs
     id="defs66" />
  <sodipodi:namedview
     pagecolor="#ffffff"
     bordercolor="#666666"
     borderopacity="1"
     objecttolerance="10"
     gridtolerance="10"
     guidetolerance="10"
     inkscape:pageopacity="0"
     inkscape:pageshadow="2"
     inkscape:window-width="1920"
     inkscape:window-height="1007"
     id="namedview64"
     showgrid="false"
     inkscape:zoom="0.78731074"
     inkscape:cx="693.5"
     inkscape:cy="235"
     inkscape:window-x="0"
     inkscape:window-y="0"
     inkscape:window-maximized="1"
     inkscape:current-layer="g70" />
  <g
     inkscape:groupmode="layer"
     inkscape:label="Image"
     id="g70">
    <path
       style="fill:#000000"
       d="m 43.095992,463.23018 c -1.218123,-0.85321 -2.698453,-2.54071 -3.289621,-3.75 l -1.074852,-2.19872 1.817115,2.22031 c 0.999413,1.22116 2.717115,2.89435 3.817115,3.71819 2.651777,1.98604 1.563622,1.99479 -1.269757,0.0102 z M 488.13561,295.53147 c -1.41063,-1.80844 -11.26986,-28.13925 -11.26986,-30.09814 0,-1.14426 0.86425,-1.65186 2.81249,-1.65186 2.67108,0 3.01022,0.54844 6.74492,10.90765 2.16283,5.99921 4.22157,10.72895 4.57497,10.51054 0.3534,-0.21842 2.32766,-5.12686 4.38725,-10.90765 3.57477,-10.03356 3.87486,-10.51054 6.61254,-10.51054 1.86785,0 2.86783,0.51708 2.86783,1.48294 0,1.89209 -9.92975,28.60234 -11.25202,30.26706 -0.54608,0.6875 -1.78267,1.25 -2.74798,1.25 -0.96531,0 -2.19387,-0.5625 -2.73014,-1.25 z m 9.31595,-16.05737 c 2.88288,-7.53095 4.89118,-13.69263 4.46288,-13.69263 -0.42829,0 -2.75196,5.39881 -5.1637,11.99735 -3.01742,8.25567 -4.86689,11.99817 -5.93017,12 -1.0681,0.002 -2.88123,-3.70243 -5.87236,-11.99735 -2.37994,-6.6 -4.67726,-12 -5.10515,-12 -0.42789,0 1.20534,5.2875 3.62941,11.75 5.91686,15.77421 6.24431,16.46632 7.57974,16.02118 0.63677,-0.21226 3.51648,-6.5476 6.39935,-14.07855 z m 13.11176,16.67161 c -0.38366,-0.38367 -0.69757,-1.74757 -0.69757,-3.03091 0,-2.09876 0.45238,-2.33333 4.5,-2.33333 h 4.5 v -10.4425 -10.4425 l -4.25,-0.3075 c -3.80293,-0.27515 -4.28329,-0.59678 -4.56642,-3.0575 l -0.31642,-2.75 h 12.13284 12.13284 l -0.31642,2.75 c -0.2836,2.46476 -0.76081,2.78207 -4.60075,3.05918 l -4.28433,0.30917 0.28433,10.19083 0.28433,10.19082 4.31059,0.31046 c 4.02665,0.29001 4.29013,0.48762 4,3 l -0.31059,2.68954 -11.05243,0.2809 c -6.07884,0.1545 -11.36634,-0.033 -11.75,-0.41666 z m 17.30243,-3.26443 -4.5,-0.59981 v -12.5 -12.5 l 4.5,-0.59981 c 2.85622,-0.3807 0.66451,-0.5998 -6,-0.5998 -6.66451,0 -8.85622,0.2191 -6,0.5998 l 4.5,0.59981 0.27946,12.69401 0.27946,12.694 -4.77946,0.37575 c -2.6287,0.20666 -0.0545,0.38927 5.72054,0.4058 6.53767,0.0187 8.80186,-0.19629 6,-0.56975 z m 13.75,3.34396 c -0.4125,-0.42741 -0.75,-7.9021 -0.75,-16.61044 v -15.83333 l 7.25,0.002 c 13.02569,0.003 18.25,4.58257 18.25,15.99845 0,7.65273 -1.72983,11.04802 -7.28682,14.30251 -3.24023,1.89765 -16.16837,3.48285 -17.46318,2.14126 z m 16.2656,-4.30647 c 4.43391,-2.37029 7.56672,-9.21972 6.5924,-14.41331 -1.39536,-7.43791 -7.45521,-11.72399 -16.57588,-11.72399 h -5.03212 v 14 14 h 5.7656 c 3.71019,0 7.00777,-0.66404 9.25,-1.8627 z m -12.79548,-11.8873 0.27988,-12.75 4.71153,0.0604 c 2.59134,0.0332 5.83348,0.66088 7.20475,1.39477 5.08849,2.72327 7.16026,12.09543 4.0173,18.17324 -1.84284,3.56369 -6.72916,5.87159 -12.43134,5.87159 H 544.806 Z m 11.73574,7.87308 c 3.19818,-2.30893 4.4789,-7.2757 3.01774,-11.70308 -1.43321,-4.34268 -4.4088,-6.42 -9.19611,-6.42 h -3.77749 v 10.61129 10.61129 l 3.75,-0.66325 c 2.0625,-0.36479 4.85514,-1.4611 6.20586,-2.43625 z m 16.74359,8.24303 c -0.3847,-0.38469 -0.69945,-7.82444 -0.69945,-16.53278 v -15.83333 h 11.06642 11.06642 l -0.31642,2.75 c -0.31146,2.70694 -0.43778,2.75457 -8.06642,3.04206 l -7.75,0.29207 v 2.95793 c 0,2.94405 0.0278,2.95794 5.91821,2.95794 7.49167,0 9.08179,0.63154 9.08179,3.60699 0,2.3113 -0.25608,2.39301 -7.5,2.39301 h -7.5 v 4.5 4.5 h 8.06642 8.06642 l -0.31642,2.75 -0.31642,2.75 -10.05055,0.28278 c -5.52781,0.15553 -10.36531,-0.032 -10.75,-0.41667 z m 11.55055,-3.1101 -8.25,-0.33689 v -6.45956 -6.45956 l 7.75,-0.18016 7.75,-0.18016 -7.5,-0.56984 -7.5,-0.56984 v -5.5 -5.5 l 8,-0.56662 8,-0.56662 -9.25,-0.18338 -9.25,-0.18338 v 14 14 l 9.25,-0.20355 9.25,-0.20354 z m 25.75051,2.67498 c -6.4048,-2.69345 -10.00051,-8.53023 -10.00051,-16.23345 0,-6.81299 2.79052,-11.30846 9.00807,-14.51187 11.77977,-6.06915 24.88384,3.04548 23.76558,16.53032 -0.46855,5.65002 -2.45189,9.20803 -7.04397,12.63651 -3.07114,2.29294 -11.91889,3.18085 -15.72917,1.57849 z m 12.62366,-2.9911 c 7.6286,-3.69294 10.45066,-13.59816 5.8672,-20.5934 -2.90662,-4.43607 -7.41335,-6.50055 -13.24906,-6.06925 -14.55683,1.07585 -18.23751,19.79076 -5.20643,26.47276 5.41217,2.77522 7.19225,2.80207 12.58829,0.18989 z m -12.7309,-1.4368 c -4.01635,-2.183 -5.89327,-5.84003 -5.89327,-11.48259 0,-4.314 0.4786,-5.57211 3.28435,-8.63372 8.01407,-8.74486 21.65414,-3.14269 21.70091,8.91288 0.0299,7.70598 -5.01531,12.74113 -12.6856,12.6603 -2.08981,-0.022 -4.97269,-0.67761 -6.40639,-1.45687 z m 13.68971,-3.58105 c 4.64724,-4.36585 4.00277,-13.18168 -1.21348,-16.5995 -2.73909,-1.79473 -8.25816,-1.98768 -11.23804,-0.3929 -2.75539,1.47465 -5.13146,6.16092 -5.13146,10.1207 0,2.27103 0.98415,4.13381 3.52792,6.67758 3.17595,3.17595 3.93402,3.47346 7.5983,2.98198 2.2387,-0.30028 5.14424,-1.55481 6.45676,-2.78786 z m 24.86744,7.67136 c -3.61155,-1.57309 -8.19884,-6.74283 -9.07273,-10.2247 -1.09787,-4.37425 0.1963,-11.96168 2.6211,-15.36699 3.24958,-4.56363 9.98893,-7.3806 15.63264,-6.53427 5.20623,0.78072 10.00871,4.422 9.06741,6.87498 -0.69271,1.80519 -5.19444,2.28274 -6.19884,0.65758 -0.96546,-1.56215 -8.30589,-1.17329 -10.98466,0.58191 -2.7974,1.83292 -4.96311,7.49791 -4.13215,10.80872 1.67874,6.68863 8.64754,10.1962 14.37415,7.23486 2.49429,-1.28985 4.24266,-3.41315 4.24266,-5.15249 0,-0.19988 -2.1375,-0.50057 -4.75,-0.66821 -4.31872,-0.27712 -4.75,-0.53178 -4.75,-2.80479 0,-2.4241 0.23285,-2.50882 7.66972,-2.79062 6.91757,-0.26212 7.73171,-0.0953 8.30178,1.70084 0.77839,2.45248 -0.85108,8.77752 -3.0774,11.94541 -3.31045,4.71053 -12.53278,6.53019 -18.94368,3.73777 z m 11.8317,-1.95538 c 4.53391,-1.919 6.80029,-4.83354 7.4343,-9.5604 l 0.54692,-4.07762 h -5.57265 c -7.21933,0 -8.41943,1.79734 -1.46685,2.19683 4.95987,0.285 5.261,0.45304 5.02334,2.80317 -0.40087,3.96392 -5.5549,8 -10.2159,8 -8.69572,0 -13.62253,-5.49492 -12.78084,-14.25456 0.39795,-4.14151 1.09229,-5.66248 3.61337,-7.91506 4.23305,-3.78223 7.6703,-4.48215 12.85518,-2.61768 4.83626,1.73911 5.90912,0.70433 1.26444,-1.21956 -7.10093,-2.94131 -15.56425,0.57126 -18.61231,7.72474 -3.03688,7.12724 0.0147,15.19233 6.93755,18.33532 5.02553,2.28161 6.7477,2.37339 10.97345,0.58482 z m 15.18449,2.30795 c -0.39717,-0.64263 1.888,-8.11608 5.07815,-16.60768 l 5.80026,-15.43927 3.05648,0.30049 c 2.96118,0.29112 3.23621,0.7682 8.82043,15.30049 3.17016,8.25 5.54413,15.59406 5.27547,16.32014 -0.89415,2.41658 -4.92507,0.83553 -6.4974,-2.5485 -1.44692,-3.1141 -1.7148,-3.22912 -7.56953,-3.25 -5.89547,-0.021 -6.11056,0.0716 -7.5,3.22836 -1.4786,3.35935 -5.1162,4.87653 -6.46386,2.69597 z m 4.68323,-4.94597 c 1.04432,-2.99572 1.05721,-3 9.03485,-3 7.9584,0 7.99338,0.0115 9.12141,3 0.62281,1.65 1.4724,3 1.88798,3 0.41559,0 -0.62756,-3.7125 -2.3181,-8.25 -1.69054,-4.5375 -4.01895,-10.8375 -5.17424,-14 -1.1553,-3.1625 -2.62201,-5.75 -3.25937,-5.75 -0.899,0 -11.44237,25.34799 -11.44237,27.50934 0,1.53127 1.24983,0.0724 2.14984,-2.50934 z m 3.20846,-5.50867 c -0.82634,-2.1534 4.10511,-14.93233 5.9011,-15.29159 1.71963,-0.34398 7.41532,13.89952 6.28772,15.72401 -1.07211,1.73471 -11.49917,1.36479 -12.18882,-0.43242 z m 9.08285,-3.67676 c -0.3815,-1.20198 -1.24502,-3.4968 -1.91895,-5.09961 l -1.22533,-2.91419 -1.64843,4.11985 c -2.2705,5.67453 -2.14271,6.07938 1.91895,6.07938 3.2132,0 3.49852,-0.21698 2.87376,-2.18543 z m 17.2677,14.56095 c -0.38987,-0.38987 -0.70885,-7.83385 -0.70885,-16.54219 v -15.83333 h 3.41115 c 3.40645,0 3.41776,0.0159 8.19727,11.50273 2.63236,6.32651 5.07891,11.16401 5.43677,10.75 0.35787,-0.414 2.61049,-5.59023 5.00583,-11.50273 4.30859,-10.63504 4.39069,-10.75 7.67684,-10.75 h 3.32168 l -0.27477,16.25 -0.27477,16.25 h -2.5 c -2.43137,0 -2.51373,-0.23333 -3,-8.5 l -0.5,-8.5 -3.51886,8.48994 c -5.16859,12.47025 -7.58382,12.24719 -13.12433,-1.21208 l -3.35681,-8.15455 -0.5,8.93835 c -0.44986,8.04197 -0.70469,8.96764 -2.54115,9.23052 -1.12263,0.1607 -2.36013,-0.0268 -2.75,-0.41666 z m 3.29115,-12.87552 c 0,-8.30082 0.29133,-10.5 1.39095,-10.5 0.82584,0 3.14289,4.26594 5.7031,10.5 2.37167,5.775 4.85548,10.5 5.51957,10.5 0.66409,0 3.1602,-4.72107 5.54691,-10.49126 2.38671,-5.7702 4.90197,-10.4952 5.58947,-10.5 0.92119,-0.006 1.25,2.75327 1.25,10.49126 0,6.33333 0.39683,10.5 1,10.5 0.61905,0 1,-5.33333 1,-14 0,-17.98799 -1.00914,-18.21622 -7.73782,-1.75 -2.85213,6.97963 -5.6409,12.37651 -6.48199,12.54405 -1.04059,0.20728 -2.95868,-3.33381 -6.5,-12 -7.06928,-17.29967 -8.28019,-17.13404 -8.28019,1.13263 0,8.71555 0.3807,14.07332 1,14.07332 0.60317,0 1,-4.16667 1,-10.5 z m 37.69945,12.86611 c -0.3847,-0.38469 -0.69945,-7.82444 -0.69945,-16.53278 v -15.83333 h 11 c 10.93552,0 11,0.014 11,2.39301 0,3.01346 -1.57667,3.60699 -9.58179,3.60699 h -6.41821 v 3 3 h 6.37756 c 6.67699,0 9.41685,1.48741 8.2657,4.48727 -0.44201,1.15184 -2.25794,1.51273 -7.61188,1.51273 h -7.03138 v 4.5 4.5 h 8.06642 8.06642 l -0.31642,2.75 -0.31642,2.75 -10.05055,0.28278 c -5.52781,0.15553 -10.36531,-0.032 -10.75,-0.41667 z m 11.55055,-3.1101 -8.25,-0.33689 v -6.45956 -6.45956 l 7.25,-0.17659 7.25,-0.17658 -7,-0.57342 -7,-0.57341 v -5.5 -5.5 l 8,-0.56662 8,-0.56662 -9.25,-0.18338 -9.25,-0.18338 v 14 14 l 9.25,-0.20355 9.25,-0.20354 z m 35.45885,3.11951 c -0.38987,-0.38987 -0.70885,-7.83385 -0.70885,-16.54219 v -15.83333 h 3 3 l 0.0275,6.25 0.0275,6.25 5.56762,-6.25 c 4.4136,-4.95454 6.16973,-6.25 8.47251,-6.25 4.21879,0 3.69362,2.10787 -2.12631,8.53444 -3.02806,3.34369 -4.74278,6.03536 -4.30681,6.76059 0.39841,0.66273 2.93144,4.25331 5.62894,7.97905 4.88589,6.74831 5.49928,9.74077 1.99044,9.71061 -2.51287,-0.0216 -3.25067,-0.70009 -8.42255,-7.74554 -5.32116,-7.2488 -6.55456,-6.93539 -7.04895,1.79116 -0.26183,4.62147 -0.62641,5.515 -2.35103,5.76187 -1.12263,0.1607 -2.36013,-0.0268 -2.75,-0.41666 z m 3.29115,-7.04678 c 0,-4.76561 1.99379,-8.32874 4.66044,-8.32874 0.74275,0 3.45466,2.925 6.02645,6.5 2.57179,3.575 5.09944,6.5 5.61699,6.5 0.58211,0 0.57789,-0.47675 -0.0111,-1.25 -9.50754,-12.48266 -10.5436,-14.11666 -9.70371,-15.30386 0.501,-0.70817 2.8653,-3.57325 5.25402,-6.36686 2.38871,-2.7936 3.96371,-5.07052 3.5,-5.0598 -0.46372,0.0107 -3.50421,3.16071 -6.75666,7 -3.25244,3.83928 -6.51494,6.98052 -7.25,6.98052 -0.988,0 -1.33646,-1.82514 -1.33646,-7 0,-4 -0.42857,-7 -1,-7 -0.61905,0 -1,5.33333 -1,14 0,8.66667 0.38095,14 1,14 0.55,0 1,-2.10207 1,-4.67126 z m 26.09506,6.2858 c -0.78207,-0.94234 -1.06112,-6.1398 -0.87245,-16.25 l 0.27739,-14.86454 3.5,-0.26755 c 3.46753,-0.26506 3.55773,-0.16765 9.72332,10.5 l 6.22332,10.76755 0.0267,-10.75 0.0267,-10.75 h 3.02477 3.02477 l -0.27477,16.25 -0.27477,16.25 h -3 c -2.74573,0 -3.52974,-0.8895 -9.25,-10.49453 l -6.25,-10.49453 v 10.13754 c 0,8.32162 -0.28334,10.24627 -1.58179,10.74453 -2.32174,0.89094 -3.04589,0.76054 -4.32315,-0.77847 z m 3.90494,-13.11454 c 0,-8.53875 0.32187,-11.49738 1.25,-11.48984 0.6875,0.006 4.175,5.16921 7.75,11.47471 9.06924,15.99612 10,15.76484 10,-2.48487 0,-8.66667 -0.38095,-14 -1,-14 -0.6087,0 -1,4.5 -1,11.5 0,9.46318 -0.26096,11.5 -1.47337,11.5 -0.82133,0 -4.45892,-5.08933 -8.2196,-11.5 -3.71042,-6.325 -7.32241,-11.5 -8.02663,-11.5 -0.97956,0 -1.2804,3.28937 -1.2804,14 0,8.66667 0.38095,14 1,14 0.6087,0 1,-4.5 1,-11.5 z m 35.69598,12.18694 c -7.29738,-4.41756 -10.32179,-12.86008 -7.24494,-20.224 2.20533,-5.27811 4.26621,-7.40317 9.41165,-9.70476 5.9239,-2.6498 11.9509,-1.73876 16.82846,2.5438 6.55621,5.75643 7.97074,12.98165 4.05885,20.73201 -4.25086,8.42195 -15.00515,11.52544 -23.05402,6.65295 z m 16.15566,-2.42549 c 4.46125,-3.33081 6.48202,-6.91061 6.47653,-11.47316 -0.0105,-8.72998 -5.87961,-14.78332 -14.32817,-14.77796 -15.0193,0.01 -19.46679,20.30712 -5.98007,27.29203 4.18397,2.16692 10.13501,1.71907 13.83171,-1.04091 z m -15.70816,-1.79418 c -9.65132,-8.12104 -4.03844,-23.48048 8.5744,-23.46353 10.99531,0.0148 16.20578,15.09596 7.85851,22.74566 -3.00048,2.74973 -4.30789,3.2506 -8.48498,3.2506 -3.82522,0 -5.61624,-0.57074 -7.94793,-2.53273 z m 12.98496,-1.03369 c 6.093,-3.15081 7.15311,-11.95224 2.01322,-16.71464 -3.47653,-3.2212 -6.73581,-3.91536 -10.66853,-2.27216 -4.18929,1.7504 -6.48173,5.14247 -6.43769,9.52573 0.0879,8.74689 7.49507,13.39011 15.093,9.46107 z m 25.08714,6.31642 c -1.12187,-1.36242 -8.21558,-27.31887 -8.21558,-30.06149 0,-1.19361 0.84367,-1.68851 2.87843,-1.68851 2.7217,0 2.96951,0.36751 4.55147,6.75 0.92017,3.7125 2.15816,8.55 2.75107,10.75 l 1.07802,4 2.84348,-9.92297 c 1.56391,-5.45764 3.25374,-10.33324 3.75517,-10.83467 0.50143,-0.50143 1.96429,-0.76109 3.25081,-0.57702 2.0351,0.29116 2.7498,1.69935 5.49901,10.83466 l 3.1599,10.5 1.06485,-4 c 0.58566,-2.2 1.81772,-7.0375 2.73789,-10.75 1.58196,-6.38249 1.82977,-6.75 4.55147,-6.75 1.98698,0 2.87843,0.50183 2.87843,1.62038 0,3.2484 -7.21396,28.91858 -8.5036,30.25927 -0.80138,0.8331 -2.28019,1.14045 -3.7329,0.77584 -2.07393,-0.52052 -2.80586,-2.01105 -5.30626,-10.80588 l -2.90048,-10.20207 -2.88141,9.42623 c -3.15617,10.3251 -4.05236,11.92623 -6.67535,11.92623 -0.96531,0 -2.2183,-0.5625 -2.78442,-1.25 z m 4.78442,-2.88916 c 0,-0.62653 1.36932,-5.57653 3.04294,-11 4.35874,-14.12476 4.68164,-13.8939 11.03421,7.88916 1.19115,4.08445 3.46453,5.61236 4.46373,3 1.74862,-4.5717 7.12246,-26.75 6.48157,-26.75 -0.43441,0 -2.10353,5.28593 -3.70916,11.74651 -3.9318,15.82048 -4.94373,15.85207 -9.38073,0.29279 -1.88791,-6.62037 -3.9222,-12.03755 -4.52066,-12.03817 -0.59845,-6.2e-4 -2.58879,5.41687 -4.42298,12.03888 -4.32048,15.5983 -5.36085,15.56547 -9.30221,-0.2935 -1.60563,-6.46058 -3.27189,-11.74651 -3.70281,-11.74651 -0.43092,0 0.85891,6.3 2.86629,14 2.93973,11.27632 3.99025,14 5.3998,14 0.9625,0 1.75001,-0.51262 1.75001,-1.13916 z m 34.69945,3.50527 c -0.3847,-0.38469 -0.69945,-7.82444 -0.69945,-16.53278 v -15.83333 h 3 3 v 13.5 13.5 h 8.06638 8.0665 l -0.3165,2.75 -0.3164,2.75 -10.0505,0.28278 c -5.52784,0.15553 -10.36534,-0.032 -10.75003,-0.41667 z m 11.55053,-3.1101 -8.24998,-0.33689 v -13.45956 c 0,-8.30637 -0.38286,-13.45956 -1,-13.45956 -0.61905,0 -1,5.33333 -1,14 v 14 l 9.24998,-0.20355 9.25,-0.20354 z m 16.4495,3.1101 c -0.3847,-0.38469 -0.6995,-7.82444 -0.6995,-16.53278 v -15.83333 h 11.0664 11.0665 l -0.3165,2.75 c -0.3114,2.70694 -0.4377,2.75457 -8.0664,3.04206 l -7.75,0.29207 v 2.95793 c 0,2.94405 0.028,2.95794 5.9182,2.95794 7.4917,0 9.0818,0.63154 9.0818,3.60699 0,2.3113 -0.2561,2.39301 -7.5,2.39301 h -7.5 v 4.5 4.5 h 8.0664 8.0665 l -0.3165,2.75 -0.3164,2.75 -10.0505,0.28278 c -5.5278,0.15553 -10.3653,-0.032 -10.75,-0.41667 z m 11.5505,-3.1101 -8.25,-0.33689 v -6.45956 -6.45956 l 7.75,-0.18016 7.75,-0.18016 -7.5,-0.56984 -7.5,-0.56984 v -5.5 -5.5 l 8,-0.56662 8,-0.56662 -9.25,-0.18338 -9.25,-0.18338 v 14 14 l 9.25,-0.20355 9.25,-0.20354 z m 16.94697,2.48128 c -0.9081,-1.09413 -1.1756,-5.58934 -0.9744,-16.37275 l 0.2774,-14.86454 6.9742,-0.3008 c 11.965,-0.51606 17.9855,4.04073 19.1336,14.48186 0.6541,5.94854 -2.5391,12.87412 -7.1561,15.52034 -4.3583,2.49793 -16.6014,3.52803 -18.2547,1.53589 z m 16.8906,-4.01731 c 4.2933,-2.89326 5.8801,-6.04853 5.8939,-11.71998 0.022,-8.8968 -5.792,-14 -15.9494,-14 h -5.0321 v 14 14 h 5.8521 c 4.4358,0 6.671,-0.55182 9.2355,-2.28002 z m -12.8675,-11.46998 0.2799,-12.75 3.1486,-0.30579 c 4.2457,-0.41235 9.8124,2.05349 11.9292,5.28417 2.1089,3.21855 2.3772,9.89323 0.5709,14.20146 -1.6083,3.83592 -6.3564,6.32016 -12.0797,6.32016 h -4.1287 z m 8.0004,9.70556 c 4.579,-1.27169 6.7795,-4.23554 6.7795,-9.13101 0,-7.15714 -3.404,-10.82455 -10.047,-10.82455 h -2.953 v 10.5 c 0,11.46623 -0.1574,11.22689 6.2205,9.45556 z m 26.151,4.55069 c -9.4762,-5.68032 -10.4313,-20.59438 -1.756,-27.41838 6.2204,-4.89299 14.6712,-4.95115 20.5374,-0.14135 2.2325,1.83039 2.2621,2.01092 0.607,3.69341 -1.5017,1.52662 -2.1964,1.60396 -5.071,0.56452 -6.81,-2.46254 -11.6142,-1.18325 -14.1784,3.77553 -2.2356,4.32309 -1.873,8.43559 1.0499,11.90929 4.209,5.00214 11.3971,5.09575 15.1579,0.19739 2.032,-2.64656 1.4923,-3.08666 -3.7846,-3.08666 -4.9371,0 -5.0584,-0.0702 -4.75,-2.75 0.3138,-2.72743 0.378,-2.75 7.8164,-2.75 h 7.5 l 0.2791,4 c 0.8135,11.65746 -12.5526,18.51318 -23.4077,12.00625 z m 14.0829,-0.92272 c 4.0052,-1.67346 6.4149,-5.00255 7.2222,-9.97776 l 0.5852,-3.60577 h -6.1309 c -3.4205,0 -6.1308,0.44207 -6.1308,1 0,0.55 2.25,1 5,1 4.7065,0 5,0.15128 5,2.57692 0,1.51485 -1.2047,3.78167 -2.9231,5.5 -2.2863,2.2863 -3.822,2.92308 -7.0496,2.92308 -8.1503,0 -13.0273,-4.86683 -13.0273,-13 0,-5.48607 2.1796,-9.38283 6.3571,-11.36516 4.265,-2.02386 6.6661,-2.05334 11.425,-0.14025 l 3.7179,1.49459 -2.3608,-1.99459 c -1.6612,-1.40358 -3.821,-1.99459 -7.2887,-1.99459 -4.3335,0 -5.4244,0.46312 -9.0436,3.83904 -3.6495,3.40423 -4.1649,4.4519 -4.5504,9.25 -0.3597,4.47862 -0.028,6.01403 1.9244,8.91096 2.5332,3.75853 7.8998,6.99593 11.6012,6.99845 1.2552,8.5e-4 3.8077,-0.63586 5.6722,-1.41492 z m 17.2451,2.78258 c -0.3846,-0.38469 -0.6994,-7.82444 -0.6994,-16.53278 v -15.83333 h 11.0664 11.0664 l -0.3164,2.75 c -0.3114,2.70694 -0.4378,2.75457 -8.0664,3.04206 l -7.75,0.29207 v 2.95793 c 0,2.94405 0.028,2.95794 5.9182,2.95794 7.4917,0 9.0818,0.63154 9.0818,3.60699 0,2.3113 -0.2561,2.39301 -7.5,2.39301 h -7.5 v 4.5 4.5 h 8.0664 8.0664 l -0.3164,2.75 -0.3164,2.75 -10.0506,0.28278 c -5.5278,0.15553 -10.3653,-0.032 -10.75,-0.41667 z m 11.5506,-3.1101 -8.25,-0.33689 v -6.45956 -6.45956 l 7.75,-0.20124 7.75,-0.20125 -7.7986,-0.34169 -7.7986,-0.3417 0.2986,-5.70706 0.2986,-5.70706 8,-0.56662 8,-0.56662 -9.25,-0.18338 -9.25,-0.18338 v 14 14 l 9.25,-0.20355 9.25,-0.20354 z M 288.91828,270.34477 c -0.70195,-0.84581 -1.01506,-2.21856 -0.69579,-3.05057 0.45506,-1.18586 2.41413,-1.51273 9.06656,-1.51273 h 8.48607 l 0.6924,-3.69077 c 0.92328,-4.92151 -2.21693,-10.82844 -8.63235,-16.23801 -2.65553,-2.23917 -5.085,-4.07122 -5.39883,-4.07122 -0.31382,0 -0.57059,1.07686 -0.57059,2.39301 0,2.69917 -1.1679,3.3829 -5.5,3.21988 -2.66825,-0.10041 -2.98766,-0.44464 -2.88836,-3.11289 0.0865,-2.32353 -0.59001,-3.45396 -3,-5.01323 -4.27813,-2.76795 -4.77122,-7.95524 -1.16374,-12.24248 1.40366,-1.66815 2.5521,-3.56952 2.5521,-4.22527 0,-1.64724 10.76727,-12.01903 12.47733,-12.01903 0.76334,0 1.65818,-0.8516 1.98854,-1.89245 0.33035,-1.04085 1.92071,-2.43925 3.53413,-3.10755 1.61342,-0.6683 3.22518,-2.1792 3.58168,-3.35755 2.07066,-6.84412 8.95692,-8.66367 14.63352,-3.8666 1.80664,1.52672 4.5223,3.40276 6.0348,4.16898 1.5125,0.76622 2.75,1.76709 2.75,2.22415 0,0.45706 1.09047,0.83102 2.42327,0.83102 1.33281,0 3.76027,1.125 5.39436,2.5 1.6341,1.375 3.83586,2.5 4.89282,2.5 1.05695,0 4.19912,2.16071 6.98261,4.80158 5.95985,5.65451 7.40421,9.87484 4.76044,13.90974 -1.61864,2.47037 -2.12103,7.5716 -1.30871,13.28869 0.3281,2.3092 0.0499,2.5 -3.64479,2.5 -3.8764,0 -3.99544,-0.10043 -3.85255,-3.25 0.0811,-1.7875 -0.22985,-3.25 -0.69098,-3.25 -1.54242,0 -1.97962,1.80891 -1.03665,4.28911 0.63007,1.6572 0.56729,2.82378 -0.19285,3.58392 -1.48803,1.48803 -6.01313,1.44081 -7.53253,-0.0786 -0.94075,-0.94075 -1.86605,-0.44652 -4.21245,2.25 -4.95156,5.69042 -6.20432,8.68014 -5.46667,13.04625 l 0.66048,3.90932 5.6621,0.15552 c 3.11415,0.0855 6.61334,0.0781 7.77596,-0.0165 2.87412,-0.23391 5.02707,2.38378 3.4869,4.23958 -0.9086,1.09479 -6.2525,1.414 -25.95804,1.55056 -21.25076,0.14728 -24.99717,-0.0489 -26.09019,-1.36586 z m 44.44747,-1.5633 c 0.38384,-0.62106 -1.49787,-1 -4.96573,-1 -5.07368,0 -5.67286,-0.23433 -6.55902,-2.5651 -2.28564,-6.01169 -1.27824,-9.79086 4.54544,-17.05176 3.03638,-3.78573 5.78517,-7.89564 6.10841,-9.13314 0.32324,-1.2375 1.2612,-2.25 2.08434,-2.25 1.14298,0 1.40649,0.9452 1.11517,4 -0.2943,3.08608 -0.0327,4.00015 1.14496,4.00066 1.09737,4.7e-4 1.52643,-1.05361 1.52643,-3.75 0,-3.53357 0.19638,-3.76941 3.39285,-4.07467 3.35577,-0.32047 3.38672,-0.2862 2.83153,3.13506 -0.4689,2.88943 -0.28657,3.38679 1.10714,3.02013 1.33322,-0.35074 1.68824,-1.77427 1.76684,-7.08451 0.0598,-4.04417 0.54916,-6.79584 1.25,-7.02946 1.70255,-0.56751 1.3983,-6.93375 -0.40278,-8.42778 -0.85493,-0.7092 -3.08993,-2.75194 -4.96667,-4.53944 -1.87673,-1.7875 -4.14978,-3.25 -5.05122,-3.25 -0.90144,0 -2.97596,-1.125 -4.61006,-2.5 -1.63409,-1.375 -4.035,-2.5 -5.33534,-2.5 -1.30034,0 -2.67075,-0.49592 -3.04535,-1.10203 -0.3746,-0.60612 -2.20116,-1.73716 -4.05902,-2.51342 -1.85785,-0.77627 -3.37792,-1.84379 -3.37792,-2.37229 0,-0.52849 -1.41238,-1.69127 -3.13861,-2.58394 -4.12048,-2.13078 -7.25432,-0.74915 -8.95244,3.94693 -0.80781,2.23395 -2.09884,3.70658 -3.57413,4.07685 -1.27023,0.31881 -3.04197,1.69751 -3.93718,3.06378 -0.89521,1.36626 -2.21824,2.48412 -2.94007,2.48412 -0.72183,0 -2.25842,1.20266 -3.41466,2.67258 -1.15624,1.46992 -3.06586,3.15742 -4.24361,3.75 -1.17775,0.59258 -2.57065,2.37118 -3.09533,3.95243 -0.52468,1.58125 -1.78627,3.7073 -2.80353,4.72456 -3.6259,3.6259 -3.28945,9.90044 0.53088,9.90044 0.65253,0 2.0044,0.59812 3.00416,1.32917 1.50634,1.10146 1.61871,1.70105 0.65595,3.5 -1.02105,1.90784 -0.90707,2.17083 0.94077,2.17083 1.56154,0 1.95708,-0.45842 1.53715,-1.7815 -0.42266,-1.33168 0.25469,-2.09297 2.68261,-3.01505 3.06592,-1.16437 3.38822,-1.06398 5.74804,1.79052 1.375,1.66323 3.03062,3.02 3.67915,3.01504 0.64854,-0.005 2.63128,2.12849 4.40611,4.74099 3.56405,5.24621 4.91456,12.5133 2.99278,16.10419 -1.02685,1.91868 -1.99146,2.14581 -9.11322,2.14581 -4.64321,0 -7.96482,0.41703 -7.96482,1 0,0.63483 7.64699,1 20.94098,1 12.88197,0 21.17883,-0.38484 21.55902,-1 z m -23.24162,-6.90108 c 0.14033,-5.06283 -0.29255,-6.6348 -3.04741,-11.06644 -3.39875,-5.46744 -4.20795,-10.03248 -1.77836,-10.03248 0.78794,0 1.71903,0.90243 2.0691,2.0054 0.95825,3.01918 5.46492,7.9946 7.2414,7.9946 0.86093,0 4.00868,-2.7 6.99501,-6 3.03755,-3.35661 6.27385,-6 7.34578,-6 2.86014,0 2.38229,1.34982 -2.67655,7.56071 -6.09859,7.48742 -7.51696,11.0194 -6.40504,15.94954 0.48122,2.13364 0.651,4.24169 0.3773,4.68455 -0.27371,0.44286 -2.69975,0.8052 -5.39122,0.8052 h -4.89357 z m 7.19866,-0.5368 c -0.48068,-3.20546 -0.20718,-5.35662 0.98488,-7.74616 0.90771,-1.81954 1.08962,-2.7475 0.40423,-2.06211 -1.60603,1.60603 -6.04502,1.60385 -7.84792,-0.004 -1.16682,-1.04049 -1.164,-0.93761 0.0169,0.61378 0.84151,1.10555 1.43212,4.25797 1.45177,7.74885 0.0325,5.77638 0.0851,5.8851 2.8444,5.88622 2.75947,10e-4 2.79901,-0.0806 2.14577,-4.43673 z m 5.67052,-14.31212 c 1.24387,-1.58606 1.2085,-1.62143 -0.37756,-0.37756 -0.9625,0.75485 -1.75,1.54235 -1.75,1.75 0,0.82304 0.82119,0.29331 2.12756,-1.37244 z m -10.77907,0.51921 c -3.33577,-3.71745 -5.34849,-7.10116 -5.34849,-8.99172 0,-1.40325 0.83145,-1.77749 3.94911,-1.77749 3.34885,0 4.36076,0.5397 6.65738,3.55073 l 2.70827,3.55072 -1.96823,2.63622 c -2.64329,3.54041 -3.59923,3.70481 -5.99804,1.03154 z m 4.03324,-2.32161 c 0.81819,-2.13216 -2.19152,-6.4476 -4.49674,-6.4476 -2.37474,0 -2.35919,0.70999 0.10405,4.75 2.17601,3.56891 3.48107,4.07327 4.39269,1.6976 z m -18.18173,-3.6476 c -2.15341,-2.15341 -1.43663,-4.8 1.3,-4.8 2.11111,0 2.5,0.46667 2.5,3 0,3.14547 -1.66557,3.93443 -3.8,1.8 z m 20.14187,-2.40099 c -1.86423,-2.84517 -0.98614,-5.63141 1.95748,-6.2112 2.3034,-0.45369 5.22628,5.47392 3.64103,7.38402 -1.77301,2.13635 -3.69392,1.73394 -5.59851,-1.17282 z m 3.25813,-1.99901 c -0.35589,-0.92744 -0.87208,-1.46126 -1.14708,-1.18626 -0.275,0.275 -0.20881,1.25882 0.14708,2.18626 0.35589,0.92744 0.87208,1.46126 1.14708,1.18626 0.275,-0.275 0.20881,-1.25882 -0.14708,-2.18626 z m -33.15,0.67695 c -0.5225,-0.50768 -2.3,-1.07018 -3.95,-1.25 -2.55793,-0.27877 -3.0455,-0.79679 -3.30877,-3.51539 -0.24127,-2.49143 0.23768,-3.54649 2.19094,-4.82631 1.40829,-0.92275 2.63465,-2.80203 2.80877,-4.30418 0.20082,-1.73247 1.25151,-3.11587 3.00001,-3.94996 1.48002,-0.706 2.97871,-2.19032 3.33043,-3.29847 0.36096,-1.13729 1.8237,-2.25167 3.35847,-2.55862 1.49544,-0.29909 3.14675,-1.5181 3.66957,-2.70891 0.56552,-1.28809 2.03769,-2.2907 3.63431,-2.47515 2.10718,-0.24342 2.83019,-0.99533 3.36547,-3.5 0.37496,-1.75448 1.13488,-3.75247 1.68872,-4.43997 1.68262,-2.08871 6.43576,-1.4803 8.45108,1.08175 1.00878,1.28246 3.03645,2.63351 4.50593,3.00233 1.46947,0.36881 2.95709,1.56952 3.30581,2.66824 0.47116,1.48452 1.51362,1.99768 4.05817,1.99768 2.34114,0 3.81919,0.63257 4.67316,2 0.74558,1.19385 2.33203,2 3.9359,2 1.72119,0 3.44243,0.96054 4.78912,2.67258 1.15624,1.46992 3.1014,3.16768 4.32258,3.77281 2.76742,1.37133 3.69084,7.24497 1.2842,8.16848 -0.90903,0.34883 -1.56387,1.78584 -1.56387,3.43186 0,2.59312 -0.3825,2.88909 -4.53929,3.51244 -3.48588,0.52274 -4.95455,0.3049 -6.32874,-0.93873 -0.9842,-0.89068 -2.55564,-1.61943 -3.4921,-1.61943 -0.93645,0 -1.92297,-0.57416 -2.19226,-1.27592 -0.77326,-2.0151 -9.16954,-1.48662 -10.75141,0.67671 -1.69071,2.31219 -10.15824,3.95749 -12.87749,2.50219 -1.44803,-0.77497 -2.79829,-0.73986 -4.89148,0.12716 -1.59022,0.65869 -3.63746,0.9113 -4.54943,0.56134 -1.05187,-0.40364 -2.17604,0.10316 -3.07466,1.38612 -1.52204,2.17301 -3.32727,2.58194 -4.85314,1.09935 z m 8.26536,-4.88038 c 1.76844,0.0582 3.91927,-0.47838 4.77961,-1.1924 1.21372,-1.00729 2.1284,-1.04117 4.0817,-0.15119 4.28019,1.95018 9.05783,1.42714 11.13971,-1.21955 1.55793,-1.98058 2.79241,-2.37494 7.56886,-2.41786 3.30905,-0.0297 6.02404,0.43946 6.46104,1.11657 0.41455,0.64232 1.87872,1.80265 3.25372,2.57852 2.18184,1.23112 2.34696,1.22536 1.29746,-0.0453 -1.97799,-2.39478 0.86136,-9.36538 3.81481,-9.36538 1.87193,0 2.45071,0.73401 3.12041,3.95729 0.45221,2.17652 0.59898,4.53902 0.32615,5.25 -0.27283,0.71101 -0.0602,1.29273 0.47255,1.29273 0.53274,0 0.96862,-0.97707 0.96862,-2.17126 0,-1.19419 0.74559,-2.99513 1.65687,-4.00208 1.56476,-1.72904 1.39215,-2.08087 -3.1049,-6.32874 -2.87398,-2.71475 -5.69735,-4.49793 -7.12169,-4.49793 -1.36953,0 -2.82883,-0.87618 -3.47726,-2.08779 -0.86182,-1.61032 -1.70492,-1.94031 -3.68662,-1.44294 -2.0466,0.51367 -3.1373,0.0229 -5.36147,-2.41221 -1.5357,-1.68138 -3.4114,-3.05706 -4.16822,-3.05706 -0.75682,0 -2.35421,-1.125 -3.54976,-2.5 -2.83988,-3.26615 -5.00755,-3.17153 -5.72746,0.25 -0.92416,4.39228 -1.98342,5.72876 -4.80791,6.06619 -1.8123,0.2165 -2.83474,1.06539 -3.24315,2.69265 -0.40949,1.63152 -1.4267,2.4728 -3.24506,2.68381 -1.69962,0.19723 -3.10017,1.25408 -3.90895,2.94969 -0.69319,1.45329 -2.38401,2.92436 -3.75738,3.26906 -1.85774,0.46626 -2.49704,1.28905 -2.49704,3.21374 0,1.56843 -0.98433,3.36131 -2.5,4.55353 -3.42819,2.69662 -3.23386,4.82134 0.44098,4.82134 1.61754,0 3.25693,0.51121 3.64309,1.13603 0.4723,0.76419 1.22808,0.45173 2.30902,-0.95462 1.08451,-1.41099 2.65222,-2.05626 4.82227,-1.98484 z m -2.29931,-6.39696 c 1.25486,-7.84745 4.83729,-8.99651 7.16953,-2.29961 1.88183,5.40356 1.26074,6.5 -3.682,6.5 h -4.1592 z m 5.17652,-1.34285 -1.03555,-3.30851 -1.27851,3.04069 c -0.70318,1.67237 -1.27819,3.10152 -1.2778,3.17587 3.8e-4,0.0743 1.04171,0.19488 2.31405,0.26783 2.17066,0.12445 2.24948,-0.0714 1.27781,-3.17588 z m 5.91794,4.56025 c -0.91839,-1.48599 0.5132,-7.79179 2.06047,-9.07592 0.74898,-0.62161 1.87416,-0.95939 2.5004,-0.75064 1.41025,0.47009 4.07433,7.85342 3.44931,9.55955 -0.5401,1.47432 -7.1283,1.69393 -8.01018,0.26701 z m 5.05355,-4.69767 c -0.72791,-2.3573 -1.1737,-2.87308 -1.41112,-1.63263 -0.19089,0.99731 -0.75339,2.24079 -1.25,2.76329 -1.42555,1.49985 -1.07617,2.03999 1.41182,2.18264 2.18586,0.12532 2.25471,-0.0573 1.2493,-3.3133 z m 12.77177,0.11344 c -0.33077,-0.86197 -0.0916,-2.07697 0.53139,-2.7 0.62303,-0.62303 1.13278,-2.11964 1.13278,-3.3258 0,-2.63716 2.85176,-3.98799 4.6312,-2.19373 0.70186,0.70771 1.57948,3.19925 1.95026,5.53675 l 0.67416,4.25 h -4.1592 c -2.85385,0 -4.34794,-0.49186 -4.76059,-1.56722 z m 5.9061,-2.94756 c -0.53692,-2.80869 -2.24193,-4.42556 -2.24193,-2.12603 0,0.81248 -0.27314,2.18904 -0.60699,3.05902 -0.4268,1.11222 -0.0227,1.58179 1.36133,1.58179 1.5634,0 1.86942,-0.51734 1.48759,-2.51478 z m -19.82339,-8.73523 c 0.37078,-2.3375 1.2934,-4.87403 2.05026,-5.63674 1.90021,-1.91489 4.5312,-0.6634 4.5312,2.15536 0,1.28226 0.50975,2.84113 1.13278,3.46416 2.19891,2.19891 0.14903,4.26722 -4.2292,4.26722 h -4.1592 z m 4.95984,-0.5 c -0.71411,-2.97668 -1.17587,-3.81816 -1.7377,-3.16667 -0.19763,0.22917 -0.6562,1.65417 -1.01906,3.16667 -0.55567,2.31627 -0.33827,2.75 1.37838,2.75 1.71665,0 1.93405,-0.43373 1.37838,-2.75 z m 25.35079,20.14584 c -0.33229,-0.33229 -1.1948,-0.36781 -1.91667,-0.0789 -0.79773,0.31922 -0.56078,0.55618 0.60417,0.60416 1.05416,0.0434 1.64479,-0.19293 1.3125,-0.52522 z m 0.60699,-5.36012 c -0.81213,-3.46469 -2.33616,-4.97655 -2.33616,-2.3175 0,1.16502 -0.23614,2.73359 -0.52476,3.48572 -0.33552,0.87434 0.19289,1.3675 1.46527,1.3675 1.61977,0 1.87944,-0.47178 1.39565,-2.53572 z m -14.66949,9.29762 c -1.04997,-1.04996 -0.77829,-4.14631 0.42929,-4.89264 0.60278,-0.37254 1.80162,0.0283 2.6641,0.8908 1.29182,1.29182 1.34144,1.84128 0.28159,3.11832 -1.39413,1.67983 -2.33292,1.92559 -3.37498,0.88352 z m 82.33333,-20.01086 c -1.375,-0.27089 -3.7375,-1.66346 -5.25,-3.09459 -2.33114,-2.20574 -2.75,-3.41459 -2.75,-7.93657 v -5.33451 l 19.25,0.2716 19.25,0.27159 v 3 3 l -15.79319,0.27561 c -9.92885,0.17327 -15.56957,0.63742 -15.19098,1.25 0.34842,0.56376 7.04409,0.97439 15.8882,0.97439 13.53883,0 15.47516,-0.20902 16.94098,-1.82874 2.02944,-2.2425 2.11888,-5.15375 0.23749,-7.73013 -1.27023,-1.73946 -3.06242,-1.99308 -17.25,-2.44113 -10.16256,-0.32094 -16.63456,-0.95827 -18.07215,-1.77964 -3.20152,-1.82922 -5.26035,-6.40272 -5.26035,-11.68539 0,-3.8016 0.57163,-5.18854 3.42073,-8.29966 l 3.42073,-3.73531 16.70572,-0.31895 c 11.17321,-0.21331 17.64121,0.0686 19.53052,0.85113 4.20703,1.74261 6.07943,5.26272 5.72523,10.76342 l -0.30293,4.7044 -17,0.28518 c -9.35,0.15684 -17.96286,0.0482 -19.1397,-0.24137 -2.40113,-0.59088 -3.58725,-2.78881 -2.72193,-5.04381 0.4785,-1.24693 3.27759,-1.5 16.59106,-1.5 14.12258,0 15.86833,-0.17729 14.77057,-1.5 -0.99928,-1.20406 -4.03762,-1.5 -15.39994,-1.5 -15.86727,0 -18.60006,0.8671 -18.60006,5.90172 0,5.32859 2.19119,6.09828 17.36086,6.09828 15.66863,0 19.47488,1.04186 22.61351,6.18982 3.91035,6.41375 1.58776,15.72532 -4.69981,18.84216 -2.78877,1.38244 -28.83083,2.36297 -34.27456,1.2905 z m 33.78321,-3.88318 c 5.52579,-3.87042 6.4987,-11.95321 1.95148,-16.21276 -3.74635,-3.50935 -7.32291,-4.22654 -21.07728,-4.22654 -14.65456,0 -17.00854,-0.76922 -18.14165,-5.92825 -0.72851,-3.31689 1.46736,-8.46756 4.02904,-9.45057 0.89033,-0.34165 8.69197,-0.62118 17.33699,-0.62118 16.64351,0 18.11821,0.38255 18.11821,4.7 v 2.3 h -16 c -10,0 -16,0.375 -16,1 0,0.62857 6.5,1 17.5,1 h 17.5 v -2.94424 c 0,-1.66906 -1.04424,-4.15943 -2.41102,-5.75 l -2.41103,-2.80576 -14.95366,-0.31996 c -11.65911,-0.24946 -15.75235,0.0138 -18.5788,1.19472 -6.99683,2.92347 -8.64006,12.46027 -3.05241,17.71531 2.4294,2.28479 3.38404,2.43589 18.38408,2.90993 18.45554,0.58324 20.02284,1.24858 20.02284,8.5 0,7.30172 -1.55368,7.94678 -20.03405,8.31788 -15.04107,0.30203 -15.93639,0.21168 -17.96057,-1.8125 -3.93038,-3.93038 -2.35813,-4.47331 14.49462,-5.00538 11.41343,-0.36034 15.95292,-0.84915 16.25186,-1.75 0.32134,-0.96833 -3.5473,-1.25 -17.16853,-1.25 h -17.58333 v 3.54545 c 0,2.43098 0.77156,4.31702 2.45455,6 2.40556,2.40557 2.78028,2.45455 18.77749,2.45455 13.17299,0 16.75294,-0.30118 18.55117,-1.5607 z m 11.58613,3.08081 c -0.32539,-0.84796 4.70523,-10.66912 11.78113,-23 12.02266,-20.95138 12.43335,-21.52011 15.54025,-21.52011 1.75519,0 3.44092,0.40399 3.74608,0.89775 0.30517,0.49376 -4.17147,9.07737 -9.94808,19.07469 -6.42573,11.12073 -9.90116,18.0509 -8.95276,17.85225 0.85258,-0.17858 5.69328,-7.48804 10.75709,-16.24325 5.06382,-8.7552 9.70049,-16.08222 10.3037,-16.28225 1.18098,-0.39162 22.58044,35.82489 22.78193,38.55621 0.10424,1.41302 -1.14285,1.6446 -8.85635,1.6446 h -8.97768 l -4.40799,-7.81225 c -4.02877,-7.14017 -4.29405,-8.02515 -3.08356,-10.28697 1.97699,-3.69404 4.04861,-2.5632 7.94186,4.33523 1.92777,3.4158 4.10504,6.22258 4.83837,6.23727 1.63622,0.0328 1.82301,0.46321 -4.69691,-10.82301 l -5.36357,-9.28456 -7.00443,12.31715 c -3.85243,6.77443 -7.69607,13.10464 -8.54141,14.06714 -2.07528,2.3629 -16.96814,2.58817 -17.85767,0.27011 z m 24.13066,-15.5397 c 4.85652,-8.49419 8.53812,-13.89167 9.3695,-13.73632 1.63037,0.30466 14.07907,21.48499 14.10943,24.00591 0.0155,1.28704 -0.78215,1.75 -3.01514,1.75 -2.66199,0 -3.55481,-0.82712 -7.24386,-6.71078 -5.21548,-8.31818 -6.28287,-6.06313 -1.21945,2.57629 l 3.59533,6.13449 h 6.86929 6.8693 l -9.35147,-16.13427 c -5.1433,-8.87384 -9.7351,-16.5179 -10.20398,-16.98678 -0.47003,-0.47003 -4.93406,6.20798 -9.94965,14.88426 -8.42557,14.5751 -9.32767,15.75996 -12.22009,16.05066 -1.97548,0.19855 -3.3185,-0.19569 -3.65513,-1.07294 -0.29269,-0.76275 4.19417,-9.56649 9.97082,-19.56387 6.00045,-10.38472 9.9384,-18.17706 9.186,-18.17706 -0.96926,0 -16.57881,25.82763 -24.32606,40.25 -0.22158,0.4125 2.66118,0.74384 6.40614,0.73632 l 6.80902,-0.0137 8,-13.99222 z m 36.62352,15.66842 c -0.80929,-0.97513 -1.09861,-5.21854 -0.90619,-13.29066 l 0.28267,-11.85817 19.83272,-0.5 c 18.1545,-0.45769 19.95265,-0.66426 21.25,-2.44113 1.96492,-2.69118 1.77113,-5.20502 -0.58272,-7.55887 -1.8342,-1.8342 -3.33333,-2 -18.08333,-2 -12.42123,0 -15.98889,0.28462 -15.66853,1.25 0.29908,0.90129 4.85227,1.38949 16.32137,1.75 14.28953,0.44917 15.94159,0.68279 16.2511,2.29804 0.81424,4.24925 -1.09413,4.70196 -19.82061,4.70196 -14.05861,0 -17.99874,-0.29355 -18.9253,-1.40999 -0.71543,-0.86204 -1.05448,-4.06812 -0.87244,-8.25 l 0.29774,-6.84001 19.75872,-0.27117 c 22.02126,-0.30222 24.18478,0.17046 27.78176,6.06972 2.48952,4.08294 2.48952,9.31996 0,13.4029 -3.43152,5.62789 -6.03925,6.29855 -24.49082,6.29855 h -16.54966 v 6 c 0,4.66667 0.33333,6 1.5,6 1.11111,0 1.5,-1.16667 1.5,-4.5 v -4.5 h 10.27089 10.27088 l 2.45823,4.5 c 3.15072,5.76767 5.94187,6.26655 3.02032,0.53984 -1.11117,-2.17809 -2.02032,-4.20309 -2.02032,-4.5 0,-0.29691 1.71047,-0.53984 3.80104,-0.53984 3.68385,0 3.93245,0.23097 8.0638,7.49225 2.34453,4.12074 3.9825,7.94574 3.63995,8.5 -0.34255,0.55426 -4.42543,1.00775 -9.07305,1.00775 h -8.45023 l -3.07653,-5 c -2.93187,-4.7649 -3.28151,-5 -7.43596,-5 h -4.35944 l -0.30479,4.75 -0.30479,4.75 -7.09381,0.29066 c -5.21658,0.21374 -7.40842,-0.0884 -8.28267,-1.14183 z m 13.87648,-6.14883 v -4.5 h 6.40498 6.40498 l 2.63717,4.5 2.63718,4.5 h 6.45784 c 3.55182,0 6.45785,-0.28272 6.45785,-0.62827 0,-1.81657 -6.35124,-11.37173 -7.55869,-11.37173 -1.09903,0 -0.9728,0.7202 0.56965,3.25 3.04024,4.98635 2.66455,6.94185 -1.26096,6.56336 -2.63829,-0.25438 -3.81466,-1.20394 -6.25,-5.04495 l -3,-4.73158 -8.19521,-0.0184 -8.19521,-0.0184 -0.30479,4.75 c -0.29153,4.54338 -0.43529,4.75 -3.30479,4.75 h -3 l -0.29044,-8.25 -0.29044,-8.25 h 16.63931 c 19.01345,0 22.19064,-0.84409 24.93346,-6.62415 2.11154,-4.44974 1.28443,-8.25721 -2.60362,-11.98531 l -3.01456,-2.89057 -18.93685,-0.31061 -18.93686,-0.31061 v 6.06061 6.06061 h 17.5 c 10.70366,0 17.5,-0.37874 17.5,-0.97523 0,-0.58235 -6.54634,-1.08592 -16.25,-1.25 l -16.25,-0.27477 -0.31336,-3.25 -0.31336,-3.25 h 17.74891 c 16.84691,0 17.86653,0.1105 20.06336,2.17431 3.0531,2.86825 3.11971,8.33963 0.14014,11.51124 -2.12345,2.26031 -2.61471,2.31445 -21,2.31445 h -18.82569 v 11 11 h 6 6 z m 39,5.81546 c 0,-0.92649 5.49967,-11.27649 12.2215,-23 12.003,-20.93438 12.2801,-21.31546 15.5,-21.31546 2.40033,0 3.2785,0.44885 3.2785,1.67569 0,1.3762 -9.31302,18.29358 -18.20741,33.07431 -1.56055,2.59333 -1.66434,3.25 -0.51369,3.25 0.81189,0 5.46976,-6.99163 10.65929,-16 6.20287,-10.76738 9.76417,-15.98754 10.88954,-15.96191 2.20699,0.0503 23.83109,37.70309 22.44755,39.08663 -0.52868,0.52868 -4.72563,0.8294 -9.32656,0.66826 l -8.36533,-0.29298 -4.40472,-7.47752 c -3.63594,-6.17242 -4.24989,-7.91778 -3.51762,-10 1.56053,-4.43732 4.4071,-3.16195 8.30406,3.72054 1.94419,3.43366 4.14015,6.24616 4.87991,6.25 0.94912,0.005 0.61864,-1.24398 -1.12279,-4.24302 -1.35729,-2.3375 -3.92957,-6.85798 -5.71617,-10.04552 -1.78659,-3.18753 -3.35975,-5.66253 -3.49589,-5.5 -0.13615,0.16254 -3.3042,5.69552 -7.04011,12.29552 -3.7359,6.6 -7.46474,12.7875 -8.2863,13.75 -2.1763,2.54966 -18.18376,2.60729 -18.18376,0.0655 z m 24.45009,-15.32286 c 4.37254,-7.69593 8.49019,-13.9926 9.15033,-13.9926 1.41299,0 14.39958,21.97428 14.39958,24.36516 0,2.25227 -5.23716,2.16823 -7.17581,-0.11516 -0.81719,-0.9625 -2.78393,-4 -4.37054,-6.75 -2.01867,-3.49886 -2.9921,-4.47495 -3.2423,-3.25115 -0.19666,0.96187 1.28292,4.44937 3.28795,7.75 l 3.64551,6.00115 h 6.42759 c 3.53518,0 6.4276,-0.27581 6.4276,-0.61292 0,-0.71968 -16.29592,-29.04782 -18.22749,-31.6859 -1.17949,-1.61091 -2.28888,-0.12235 -10.62032,14.25 -8.70328,15.01383 -9.49387,16.04882 -12.2591,16.04882 -1.62572,0 -3.18919,-0.60805 -3.47438,-1.35123 -0.28518,-0.74318 4.20047,-9.51818 9.96813,-19.5 6.2406,-10.80034 9.93706,-18.14877 9.12932,-18.14877 -1.05705,0 -16.18636,25.05242 -23.40137,38.75 -1.17409,2.22899 -1.12181,2.24993 5.60003,2.2426 l 6.78518,-0.007 7.95009,-13.9926 z m 42.76182,15.9309 c -4.38121,-1.33301 -7.34173,-6.17522 -6.98431,-11.4235 l 0.2724,-4 h 19.5 19.5 l 0.33749,2.38691 c 0.18562,1.3128 -0.26438,2.76841 -1,3.23469 -0.73562,0.46627 -8.00155,0.85467 -16.14651,0.86309 -9.6143,0.01 -14.59222,0.36609 -14.19098,1.01531 0.36869,0.59655 6.82482,1 16.00231,1 14.76406,0 15.44704,-0.0896 16.94099,-2.22251 2.2318,-3.18634 1.93069,-5.33815 -1.07816,-7.70491 -2.38499,-1.87604 -3.98309,-2.07258 -16.85212,-2.07258 -13.14491,0 -14.47354,-0.17217 -17.61514,-2.2826 -2.1847,-1.46762 -3.92243,-3.78838 -4.86705,-6.5 -1.29222,-3.70946 -1.29222,-4.72534 0,-8.4348 0.94462,-2.71162 2.68235,-5.03238 4.86705,-6.5 3.20557,-2.15341 4.35736,-2.2826 20.35,-2.2826 h 16.95212 l 3.45657,3.45657 c 3.11855,3.11855 3.42658,3.9253 3.15,8.25 l -0.30657,4.79343 -17.77246,0.27317 c -19.07177,0.29313 -22.08097,-0.27842 -21.53822,-4.09083 0.30153,-2.11807 0.79386,-2.19706 16.71831,-2.68234 13.49982,-0.41139 16.13415,-0.72638 14.86453,-1.77739 -1.13431,-0.93899 -5.45276,-1.2039 -16.30142,-1 -14.62455,0.27488 -14.77609,0.30119 -16.71656,2.90251 -1.67228,2.24181 -1.77544,2.9719 -0.70649,5 0.68844,1.30619 1.74685,2.70549 2.35201,3.10957 0.60517,0.40408 7.40732,0.74158 15.1159,0.75 15.94752,0.0174 19.45934,1.11434 22.65713,7.07697 2.35579,4.39263 2.31262,8.63009 -0.12873,12.63401 -3.73534,6.12613 -5.83705,6.78153 -22.49968,7.01629 -8.27438,0.11658 -16.52396,-0.23823 -18.33241,-0.78846 z m 35.47672,-3.87522 c 6.29587,-3.83886 6.12799,-13.49872 -0.30797,-17.7205 -2.32256,-1.52352 -5.3325,-1.88433 -18.08151,-2.16749 -15.0131,-0.33345 -15.33204,-0.38664 -17.29714,-2.88486 -2.73953,-3.48276 -2.55858,-7.80977 0.45254,-10.82088 2.40783,-2.40784 2.76872,-2.45455 18.96481,-2.45455 15.29977,0 16.58617,0.14182 17.54546,1.93426 2.62915,4.91262 2.17683,5.06574 -14.96482,5.06574 -10,0 -16,0.375 -16,1 0,0.62857 6.5,1 17.5,1 16.97467,0 17.5,-0.0615 17.5,-2.04966 0,-3.31629 -2.89923,-7.96153 -5.613,-8.9933 -4.2539,-1.61733 -30.01123,-1.20272 -33.37596,0.53725 -6.67988,3.4543 -8.09997,11.13446 -3.09528,16.73993 l 2.91576,3.26578 16.1757,0.5 c 15.5013,0.47915 16.25527,0.59843 18.08424,2.86078 1.0497,1.29844 1.90854,3.62413 1.90854,5.16822 0,7.75113 -2.91681,8.971 -21.45034,8.971 -13.21633,0 -14.73294,-0.18328 -16.54966,-2 -1.1,-1.1 -2,-2.675 -2,-3.5 0,-1.2663 2.32425,-1.5 14.91821,-1.5 8.20502,0 15.62743,-0.27215 16.49426,-0.60478 4.26551,-1.63684 -1.12242,-2.39522 -17.0168,-2.39522 h -17.4863 l 0.63681,3.75 c 0.35424,2.08605 1.73025,4.74837 3.10108,6 2.33663,2.13346 3.27714,2.24981 18.1585,2.24626 13.78012,-0.003 16.08314,-0.24086 18.88287,-1.94798 z m 11.31137,3.08109 c 0,-1.07167 5.45064,-11.43919 12.11254,-23.03893 12.01433,-20.91943 12.14,-21.09044 15.5,-21.09044 2.32655,0 3.38746,0.46427 3.38746,1.48241 0,0.81533 -4.48493,9.25283 -9.96652,18.75 -5.58063,9.66878 -9.48051,17.4345 -8.86211,17.64689 0.60743,0.20861 1.4684,-0.24139 1.91329,-1 0.44488,-0.75862 4.60308,-7.9043 9.24044,-15.8793 5.81509,-10.00037 8.97899,-14.5 10.19561,-14.5 1.23361,0 4.87853,5.37855 12.12167,17.88707 5.69669,9.83789 10.35762,18.74291 10.35762,19.78893 0,1.74616 -0.71575,1.87821 -8.7423,1.61293 l -8.74231,-0.28893 -4.40796,-7.37162 c -3.71683,-6.2158 -4.26357,-7.78221 -3.48704,-9.99028 1.63525,-4.64981 3.84344,-3.73136 7.96385,3.31237 2.10722,3.60224 4.43178,6.54953 5.16569,6.54953 1.32973,0 0.53242,-1.61185 -7.25737,-14.67156 l -3.08471,-5.17156 -7.95393,13.67156 -7.95392,13.67156 -8.75,0.28893 c -8.10509,0.26764 -8.75,0.14532 -8.75,-1.65956 z m 24.21587,-15.12937 c 4.28348,-7.425 8.38719,-13.63104 9.11935,-13.7912 1.66303,-0.36379 15.00156,22.47118 14.25796,24.40898 -0.56356,1.46862 -4.34535,1.84443 -6.208,0.61691 -0.61315,-0.40408 -2.56861,-3.3222 -4.34547,-6.48471 -1.77685,-3.1625 -3.63603,-5.49947 -4.13151,-5.19324 -0.93548,0.57816 0.70007,4.25649 4.7547,10.69326 2.33399,3.70523 2.43964,3.75 8.84964,3.75 3.56811,0 6.48746,-0.18594 6.48746,-0.4132 0,-0.22725 -4.3903,-8.01836 -9.75623,-17.31356 l -9.75623,-16.90036 -8.93157,15.56356 c -4.91237,8.55996 -9.40957,15.89417 -9.99377,16.29825 -2.06248,1.42655 -6.5622,0.84751 -6.5622,-0.84445 0,-0.88537 4.53748,-9.47289 10.08329,-19.08338 5.54581,-9.61049 9.81331,-17.7436 9.48333,-18.07357 -0.32997,-0.32998 -1.00596,-0.17996 -1.50218,0.33338 -1.15733,1.19722 -23.06444,39.11294 -23.06444,39.91876 0,0.33327 3.02124,0.47289 6.71387,0.31026 l 6.71386,-0.29569 z m 64.4508,16.33333 c -0.36667,-0.36666 -0.66667,-8.46666 -0.66667,-18 v -17.33333 h 15.92327 c 15.64746,0 15.97626,0.0446 18.98194,2.5737 6.27345,5.27876 6.27727,14.0003 0.009,20.01135 -2.98779,2.86507 -3.23121,2.91495 -14.22689,2.91495 h -11.18709 l -0.29568,-7.3425 c -0.32148,-7.98329 0.72275,-10.45374 4.20817,-9.95576 1.76698,0.25246 2.13392,1.10438 2.38977,5.54826 l 0.30226,5.25 h 5.99319 c 5.06998,0 6.38087,-0.38767 8.50985,-2.51665 1.8356,-1.8356 2.33721,-3.12103 1.85357,-4.75 -1.2108,-4.07737 -3.2414,-4.73335 -14.65249,-4.73335 h -10.80887 v 10.5 10.5 h 11.7656 c 13.7114,0 17.32088,-1.30536 21.02625,-7.6041 4.11318,-6.99196 2.00956,-15.46401 -5.17314,-20.83411 -2.46522,-1.84311 -4.44739,-2.0956 -18.68821,-2.3806 l -15.9305,-0.31881 v -3.43119 -3.43119 h 15.88581 c 15.44811,0 16.03318,0.077 21.23456,2.79422 3.89772,2.03619 6.16679,4.11862 8.36419,7.67616 2.66549,4.31537 3.01544,5.76949 3.01544,12.52962 0,6.67478 -0.35092,8.17785 -2.75854,11.8153 -3.34945,5.06039 -8.71126,8.73804 -14.74146,10.11114 -4.98292,1.13463 -29.27968,1.46055 -30.33333,0.40689 z m 33.84191,-4.19831 c 11.9219,-5.41601 15.9155,-20.20965 8.17966,-30.30018 -5.46186,-7.12439 -8.94172,-8.28579 -25.93824,-8.65689 -12.88145,-0.28124 -14.75,-0.12289 -14.75,1.25 0,1.35761 1.99141,1.57205 14.59887,1.57205 16.49762,0 19.68809,0.88753 24.13129,6.71286 3.08206,4.0408 4.14509,12.10508 2.32332,17.62509 -1.48734,4.50668 -6.85211,9.26147 -12.01956,10.65292 -2.19579,0.59126 -9.06419,0.9477 -15.26313,0.79208 l -11.27079,-0.28295 v -13 -13 l 12.29578,-0.28115 12.29577,-0.28114 2.95423,2.95422 c 3.76137,3.76138 3.95176,8.20144 0.49967,11.65352 -2.19928,2.19929 -3.29124,2.45455 -10.5,2.45455 h -8.04545 v -5 c 0,-2.75 -0.45,-5 -1,-5 -0.5641,0 -1,2.83333 -1,6.5 v 6.5 l 6.75,-0.006 c 12.81859,-0.0106 18.25,-3.35255 18.25,-11.22928 0,-3.17604 -0.67663,-4.64177 -3.4,-7.36514 l -3.4,-3.4 h -14.1 -14.1 v 15.5 15.5 l 14.25,-0.022 c 11.616,-0.0179 14.99095,-0.35857 18.25858,-1.84302 z m 8.49142,2.97272 c 0,-1.04074 5.46733,-11.39074 12.14963,-23 12.00665,-20.85934 12.18906,-21.10774 15.5,-21.10774 2.34936,0 3.35037,0.45988 3.35037,1.53919 0,0.84656 -4.4867,9.28406 -9.97044,18.75 -5.60145,9.66913 -9.48477,17.37702 -8.86211,17.59011 0.60958,0.20861 1.47232,-0.24139 1.91721,-1 0.44488,-0.75862 4.60308,-7.9043 9.24044,-15.8793 5.9249,-10.18921 8.9677,-14.5 10.23491,-14.5 2.27179,0 24.11203,37.22796 22.68022,38.65977 -0.5094,0.5094 -4.706,0.79435 -9.32577,0.63321 l -8.39957,-0.29298 -4.40772,-7.37162 c -3.71658,-6.21574 -4.26331,-7.78223 -3.48678,-9.99028 1.66264,-4.72769 3.95653,-3.78511 8.0317,3.3003 2.07565,3.60888 4.3975,6.5616 5.15968,6.5616 1.03365,0 0.82299,-0.95288 -0.82905,-3.75 -1.21816,-2.0625 -3.82186,-6.54234 -5.78601,-9.9552 -4.10894,-7.13963 -3.0593,-7.76842 -11.19301,6.7052 -9.00505,16.02413 -7.80533,15 -17.57179,15 -7.60521,0 -8.43191,-0.18553 -8.43191,-1.89226 z m 24.24503,-15.10774 c 4.25976,-7.425 8.35163,-13.63189 9.09303,-13.79309 1.44274,-0.3137 14.66194,21.54948 14.66194,24.24932 0,1.02116 -0.93095,1.53859 -2.75,1.52846 -3.72937,-0.0208 -4.38118,-0.60052 -8.1452,-7.24478 -1.79472,-3.16805 -3.69068,-5.49585 -4.21324,-5.17289 -0.81942,0.50643 3.52247,9.46476 6.38949,13.18298 0.91956,1.19257 13.71895,1.88715 13.71895,0.74448 0,-0.27803 -4.38999,-8.07235 -9.75553,-17.3207 l -9.75553,-16.81519 -8.49447,14.94206 c -4.67196,8.21813 -9.08911,15.56245 -9.8159,16.32071 -1.72797,1.80279 -6.09007,1.77283 -6.78826,-0.0466 -0.30081,-0.78389 4.03383,-9.36337 9.63253,-19.06552 5.5987,-9.70214 9.90144,-17.91828 9.56164,-18.25807 -0.3398,-0.3398 -1.02889,-0.19782 -1.53131,0.31552 -0.99837,1.02003 -23.05317,39.36816 -23.05317,40.08404 0,0.24236 3.0375,0.30759 6.75,0.14496 l 6.75,-0.29569 z m 40.46001,16.37171 c -0.38777,-0.38778 -0.70504,-6.91111 -0.70504,-14.49631 v -13.79127 l -7.75,-0.29207 -7.75,-0.29206 -0.29044,-8.25 -0.29044,-8.25 h 24.58088 24.58088 l -0.29044,8.25 -0.29044,8.25 h -6 -6 l -0.31336,-3.25 c -0.29191,-3.02758 -0.10371,-3.25 2.75,-3.25 2.05632,0 3.06336,-0.49311 3.06336,-1.5 0,-1.27619 -2.61111,-1.5 -17.5,-1.5 -14.88889,0 -17.5,0.22381 -17.5,1.5 0,1.20833 1.55556,1.5 8,1.5 h 8 v 14 c 0,11.77778 0.2381,14 1.5,14 1.2619,0 1.5,-2.22222 1.5,-14 v -14 h 3.52307 3.52308 l -0.27308,17.75 -0.27307,17.75 -7.54496,0.28837 c -4.14973,0.15861 -7.86223,-0.0289 -8.25,-0.41666 z m 14.29496,-17.87171 c 0,-12.98266 -0.23915,-15.5 -1.47254,-15.5 -1.21486,0 -1.5211,2.4937 -1.75,14.25 l -0.27746,14.25 h -3 -3 l -0.27746,-14.25 -0.27745,-14.25 h -7.97255 -7.97254 v -3.52114 -3.52114 l 19.75,0.27114 19.75,0.27114 v 3 c 0,2.65367 -0.37519,3.03618 -3.25,3.31336 -4.88701,0.47119 -3.90637,2.18664 1.25,2.18664 h 4.5 v -6 -6 h -22.5 -22.5 v 5.95794 5.95793 l 7.75,0.29207 7.75,0.29206 0.27746,14.25 0.27745,14.25 h 6.47255 6.47254 z m 6.39698,17.09212 c -0.29714,-0.77433 4.03695,-9.43683 9.63131,-19.25 14.40648,-25.27065 14.45703,-25.34212 17.92688,-25.34212 1.60974,0 3.1828,0.41422 3.49569,0.9205 0.3129,0.50627 -4.13208,9.05627 -9.87772,19 -6.2414,10.80172 -9.89867,18.0795 -9.0854,18.0795 0.74866,0 5.52471,-7.18237 10.61345,-15.96082 5.08873,-8.77845 9.82651,-16.18119 10.5284,-16.45053 0.81868,-0.31416 5.23638,6.38531 12.32329,18.68837 l 11.0471,19.17808 v -12.26962 -12.26961 l 7.75,0.29207 7.75,0.29206 0.3035,4.71775 0.3035,4.71775 11.1965,0.28225 11.1965,0.28225 0.3131,2.71512 c 0.4147,3.59653 -1.1794,3.93539 -16.8131,3.57391 l -12.5,-0.28903 -0.3048,-4.75 c -0.4397,-6.85253 -2.1952,-5.85291 -2.1952,1.25 v 6 h 15.845 c 14.0804,0 16.0294,-0.20366 17.5,-1.82874 0.9103,-1.00581 1.6481,-2.69331 1.6397,-3.75 -0.038,-4.7684 -3.7658,-6.42126 -14.4823,-6.42126 h -8.6291 l 0.3134,-3.25 0.3133,-3.25 9.834,-0.5 c 8.2287,-0.41838 10.0651,-0.81686 11.25,-2.44113 1.9636,-2.6918 1.7695,-5.20544 -0.584,-7.55887 -1.8279,-1.82796 -3.3333,-2 -17.5,-2 -13.1111,0 -15.5,0.23118 -15.5,1.5 0,1.26895 2.3924,1.5 15.5314,1.5 13.4567,0 15.6153,0.21853 16.1592,1.63592 0.3452,0.89976 0.1696,2.36226 -0.3904,3.25 -0.8768,1.39002 -3.5711,1.61408 -19.4092,1.61408 h -18.391 l -0.2904,-8.25 -0.2905,-8.25 19.7905,0.004 c 22.1128,0.004 24.4886,0.61131 27.85327,7.11775 1.9583,3.78709 1.4853,11.25895 -0.8615,13.60569 -1.36137,1.36139 -1.32097,1.84914 0.3851,4.64693 3.8062,6.24205 1.7948,14.44635 -4.47197,18.24035 -2.8608,1.73196 -5.4667,1.88554 -31.9929,1.88554 h -28.87845 l -4.52478,-7.77946 c -4.14248,-7.12218 -4.41306,-7.98819 -3.20258,-10.25 2.06718,-3.86258 4.21124,-2.97095 7.48423,3.11241 3.01029,5.59508 5.1264,8.12398 6.03642,7.21397 0.57601,-0.57602 -9.74542,-18.75067 -10.66416,-18.77815 -0.34525,-0.0103 -3.91896,5.71873 -7.94157,12.73123 -4.02261,7.0125 -7.79013,13.08061 -8.37227,13.48469 -0.58213,0.40408 -4.56004,0.74158 -8.8398,0.75 -5.77873,0.0114 -7.92043,-0.34703 -8.32164,-1.39257 z m 24.15293,-15.58472 c 4.37255,-7.69593 8.49499,-13.99593 9.16098,-14 1.5281,-0.009 14.28911,21.49196 14.28911,24.07602 0,1.46084 -0.70999,1.91658 -2.98581,1.91658 -3.04604,0 -3.20256,-0.17208 -9.53161,-10.47957 -3.49877,-5.6981 -2.64647,-0.5057 0.98201,5.98263 l 3.63329,6.49694 h 6.87579 6.8758 l -9.67474,-16.96107 c -5.3211,-9.3286 -9.89973,-16.97686 -10.17473,-16.99615 -0.275,-0.0193 -4.57214,7.0507 -9.5492,15.71108 -8.00072,13.92173 -9.37624,15.78416 -11.87182,16.07432 -5.71575,0.66455 -5.28433,-1.09414 4.42564,-18.04156 5.13225,-8.95764 9.98253,-17.29912 10.77839,-18.53662 1.25769,-1.95562 1.25855,-2.25 0.007,-2.25 -0.81639,0 -5.72108,7.47328 -11.32112,17.25 -5.43437,9.4875 -10.73238,18.7125 -11.77334,20.5 l -1.89266,3.25 h 6.89869 6.89869 l 7.95008,-13.9926 z m 75.35637,11.5798 c 4.39637,-3.98363 4.77817,-10.36452 0.9393,-15.69756 -0.9151,-1.27134 -0.6877,-2.58423 1.0801,-6.23615 2.73577,-5.65139 2.18907,-9.21032 -2.0374,-13.26295 l -3.0146,-2.89054 -18.9368,-0.31061 -18.9369,-0.31061 v 6.06061 6.06061 h 17.5 c 10.7037,0 17.5,-0.37874 17.5,-0.97523 0,-0.58235 -6.5463,-1.08592 -16.25,-1.25 l -16.25,-0.27477 v -3 -3 l 17.4097,-0.2743 c 16.7492,-0.26389 17.4985,-0.19089 19.75,1.92431 3.0392,2.85515 3.2149,8.97538 0.3403,11.84999 -1.7193,1.7193 -3.3333,2 -11.5,2 -7.7778,0 -9.5,0.27193 -9.5,1.5 0,1.22053 1.6517,1.5 8.8652,1.5 7.4544,0 9.2844,0.32981 11.5,2.07258 3.2778,2.57836 3.6319,8.47345 0.7248,12.06664 -1.8782,2.32144 -2.2073,2.36078 -19.75,2.36078 h -17.84 v -8 -8 l 3.1928,-0.30909 c 3.1549,-0.30542 3.1965,-0.25196 3.5,4.5 l 0.3072,4.80909 h 12.25 c 15.6366,0 16.6729,-1.88656 1.254,-2.28275 l -11.004,-0.28275 v -4.96725 -4.96725 h -6 -6 v 11.05943 11.05942 l 19.3977,-0.30942 c 17.4444,-0.27827 19.6102,-0.50204 21.5086,-2.22223 z m 10.09367,3.72826 c 0,-0.92649 5.4997,-11.27649 12.2215,-23 12.0031,-20.93438 12.2802,-21.31546 15.5001,-21.31546 2.4003,0 3.2785,0.44885 3.2785,1.67569 0,1.3808 -9.3847,18.4218 -18.2699,33.17537 -1.7326,2.87675 -1.7874,3.30137 -0.3876,3 0.8968,-0.19308 5.7991,-7.52019 10.894,-16.28246 5.095,-8.76226 9.7524,-16.08773 10.35,-16.27882 1.5839,-0.5065 23.8814,38.6423 22.6885,39.83526 -0.5285,0.52851 -4.7254,0.82908 -9.3263,0.66794 l -8.3653,-0.29298 -4.4047,-7.47752 c -3.636,-6.17242 -4.2499,-7.91778 -3.5176,-10 1.5605,-4.43732 4.4071,-3.16195 8.304,3.72054 1.9442,3.43366 4.124,6.24616 4.8439,6.25 0.72,0.004 1.1276,-0.33052 0.9059,-0.74302 -0.2217,-0.4125 -2.7881,-4.92796 -5.7031,-10.03436 l -5.3,-9.28435 -7.161,12.44704 c -3.9386,6.84587 -7.7539,13.16133 -8.4784,14.03435 -1.0114,1.21861 -3.2633,1.58732 -9.6949,1.58732 -7.188,0 -8.3776,-0.23921 -8.3776,-1.68454 z m 24.4502,-15.32286 c 4.3725,-7.69593 8.4998,-13.9926 9.1717,-13.9926 1.441,0 14.3782,21.89013 14.3782,24.32837 0,2.28704 -5.2159,2.23008 -7.1758,-0.0784 -0.8172,-0.9625 -2.7839,-4 -4.3706,-6.75 -1.8375,-3.1849 -3.0052,-4.41354 -3.2166,-3.38449 -0.1825,0.88853 1.2861,4.37603 3.2635,7.75 l 3.5953,6.13449 h 6.4521 c 3.5487,0 6.4521,-0.27581 6.4521,-0.61292 0,-0.71968 -16.2959,-29.04782 -18.2275,-31.6859 -1.1795,-1.61091 -2.2889,-0.12235 -10.6203,14.25 -8.7034,15.01386 -9.494,16.04885 -12.2592,16.04885 -1.6257,0 -3.1892,-0.60805 -3.4744,-1.35123 -0.2851,-0.74318 4.2005,-9.51818 9.9682,-19.5 6.2406,-10.80034 9.9371,-18.14877 9.1294,-18.14877 -1.0571,0 -16.1865,25.05242 -23.4015,38.75 -1.1741,2.22899 -1.1218,2.24993 5.6,2.2426 l 6.7852,-0.007 7.9502,-13.9926 z m 42.7618,15.9309 c -4.3812,-1.33301 -7.3417,-6.17522 -6.9843,-11.4235 l 0.2724,-4 h 19.5 19.5 l 0.3375,2.38691 c 0.1856,1.3128 -0.2644,2.76841 -1,3.23469 -0.7356,0.46627 -8.0016,0.85467 -16.1465,0.86309 -9.6143,0.01 -14.5922,0.36609 -14.191,1.01531 0.3687,0.59655 6.8248,1 16.0023,1 14.7641,0 15.4471,-0.0896 16.941,-2.22251 2.2318,-3.18634 1.9307,-5.33815 -1.0782,-7.70491 -2.3823,-1.87396 -3.9875,-2.07294 -16.75,-2.07632 -16.0775,-0.004 -19.5372,-1.17219 -22.1753,-7.48604 -1.8663,-4.46665 -1.8161,-6.91502 0.2302,-11.22715 3.0966,-6.52568 5.6375,-7.27511 24.68,-7.27933 l 16.85,-0.004 3.4566,3.45657 c 3.1185,3.11855 3.4266,3.9253 3.15,8.25 l -0.3066,4.79369 -17.7725,0.27317 c -19.0717,0.29313 -22.0809,-0.27842 -21.5382,-4.09083 0.3016,-2.11807 0.7939,-2.19706 16.7183,-2.68234 13.4999,-0.41139 16.1342,-0.72638 14.8646,-1.77739 -1.1343,-0.93899 -5.4528,-1.2039 -16.3015,-1 -14.6245,0.27488 -14.7761,0.30119 -16.7165,2.90251 -1.6723,2.24181 -1.7755,2.9719 -0.7065,5 0.6884,1.30619 1.7468,2.70549 2.352,3.10957 0.6052,0.40408 7.4073,0.74158 15.1159,0.75 15.9475,0.0174 19.4593,1.11434 22.6571,7.07697 2.3558,4.39263 2.3126,8.63009 -0.1287,12.63401 -3.7353,6.12613 -5.837,6.78153 -22.4997,7.01629 -8.2744,0.11658 -16.5239,-0.23823 -18.3324,-0.78846 z m 34.6231,-3.33819 c 5.4403,-2.81328 7.1648,-10.41403 3.488,-15.3736 -3.0412,-4.10229 -7.3644,-5.09281 -22.5004,-5.15527 -13.5554,-0.0559 -13.6959,-0.0799 -15.75,-2.6913 -2.8053,-3.56633 -2.6545,-7.87417 0.3819,-10.91059 2.4079,-2.40784 2.7688,-2.45455 18.9649,-2.45455 15.2997,0 16.5861,0.14182 17.5454,1.93426 2.6292,4.91262 2.1769,5.06574 -14.9648,5.06574 -10,0 -16,0.375 -16,1 0,0.62857 6.5,1 17.5,1 16.9747,0 17.5,-0.0615 17.5,-2.04966 0,-3.31629 -2.8992,-7.96153 -5.613,-8.9933 -4.0237,-1.5298 -28.8737,-1.19835 -32.7884,0.43733 -7.1178,2.97398 -8.8777,11.02139 -3.6828,16.83985 l 2.9157,3.26578 16.1757,0.5 c 15.5013,0.47915 16.2553,0.59843 18.0843,2.86078 1.0497,1.29844 1.9085,3.62413 1.9085,5.16822 0,7.75113 -2.9168,8.971 -21.4503,8.971 -13.2164,0 -14.733,-0.18328 -16.5497,-2 -1.1,-1.1 -2,-2.675 -2,-3.5 0,-1.2663 2.3242,-1.5 14.9182,-1.5 8.205,0 15.6274,-0.27215 16.4943,-0.60478 4.2655,-1.63684 -1.1225,-2.39522 -17.0168,-2.39522 h -17.4863 l 0.6368,3.75 c 0.3542,2.08605 1.7302,4.74837 3.1011,6 2.3333,2.13049 3.2872,2.25 17.9581,2.25 11.4012,0 16.2165,-0.37369 18.2296,-1.41469 z m 11.6131,3.13996 c -0.2691,-0.7011 -0.3674,-10.9386 -0.2186,-22.75 l 0.2705,-21.47527 h 24.5 24.5 l 0.2977,6.84001 c 0.1821,4.18188 -0.157,7.38796 -0.8724,8.25 -0.9141,1.10146 -4.5351,1.40999 -16.5477,1.40999 -18.3096,0 -21.2463,1.79581 -3.6276,2.21826 l 11.75,0.28174 0.3134,3.25 0.3133,3.25 h -15.5633 -15.5634 v -7.97523 -7.97523 l 16.1677,-0.27477 c 11.8444,-0.2013 16.2789,-0.60902 16.5834,-1.52477 0.3222,-0.96924 -3.6461,-1.25 -17.6678,-1.25 h -18.0833 v 15.5 15.5 h 18 c 11.3333,0 18,-0.37037 18,-1 0,-0.62626 -6.1667,-1 -16.5,-1 h -16.5 v -3.52114 -3.52114 l 19.75,0.27114 19.75,0.27114 0.2977,6.84001 c 0.1821,4.18188 -0.157,7.38796 -0.8724,8.25 -1.634,1.96884 -47.7243,2.09744 -48.4772,0.13526 z m 46.5519,-7.72527 v -6 h -17.5 c -14.8889,0 -17.5,0.22381 -17.5,1.5 0,1.27296 2.507,1.5 16.5634,1.5 h 16.5633 l -0.3133,3.25 -0.3134,3.25 h -19.5 -19.5 l -0.2731,-17.75 -0.273,-17.75 h 20.0864 20.0864 l -0.3133,3.25 -0.3134,3.25 -16.25,0.27477 -16.25,0.27477 v 5.97523 5.97523 h 13.5 c 11.3333,0 13.5,-0.24074 13.5,-1.5 0,-1.25044 -2.007,-1.5 -12.0634,-1.5 h -12.0633 l 0.3133,-3.25 0.3134,-3.25 15.75,-0.27539 15.75,-0.2754 v -5.9746 -5.97461 h -22.5 -22.5 v 20.5 20.5 h 22.5 22.5 z M 40.079563,13.854772 c 0.788034,-1.33469 2.524803,-3.07743 3.859488,-3.87277 l 2.426698,-1.44606 -2.220305,1.87276 c -1.221168,1.03002 -2.957938,2.77277 -3.859488,3.87277 -1.563548,1.90771 -1.573071,1.88802 -0.206393,-0.4267 z"
       id="path260" />
  </g>
</svg>
