<?xml version="1.0" encoding="UTF-8" standalone="no"?>
<svg
   xmlns:dc="http://purl.org/dc/elements/1.1/"
   xmlns:cc="http://creativecommons.org/ns#"
   xmlns:rdf="http://www.w3.org/1999/02/22-rdf-syntax-ns#"
   xmlns:svg="http://www.w3.org/2000/svg"
   xmlns="http://www.w3.org/2000/svg"
   xmlns:sodipodi="http://sodipodi.sourceforge.net/DTD/sodipodi-0.dtd"
   xmlns:inkscape="http://www.inkscape.org/namespaces/inkscape"
   version="1.1"
   id="svg1003"
   width="556.79999"
   height="295.46667"
   viewBox="0 0 556.79999 295.46667"
   sodipodi:docname="sarasa-db-isotipo.svg"
   inkscape:version="1.0.2 (e86c870879, 2021-01-15)">
  <metadata
     id="metadata1009">
    <rdf:RDF>
      <cc:Work
         rdf:about="">
        <dc:format>image/svg+xml</dc:format>
        <dc:type
           rdf:resource="http://purl.org/dc/dcmitype/StillImage" />
        <dc:title />
      </cc:Work>
    </rdf:RDF>
  </metadata>
  <defs
     id="defs1007" />
  <sodipodi:namedview
     pagecolor="#ffffff"
     bordercolor="#666666"
     borderopacity="1"
     objecttolerance="10"
     gridtolerance="10"
     guidetolerance="10"
     inkscape:pageopacity="0"
     inkscape:pageshadow="2"
     inkscape:window-width="1920"
     inkscape:window-height="1007"
     id="namedview1005"
     showgrid="false"
     inkscape:zoom="1.428691"
     inkscape:cx="221.66552"
     inkscape:cy="120.55822"
     inkscape:window-x="0"
     inkscape:window-y="0"
     inkscape:window-maximized="1"
     inkscape:current-layer="g1011"
     inkscape:document-rotation="0" />
  <g
     inkscape:groupmode="layer"
     inkscape:label="Image"
     id="g1011">
    <rect
       style="fill:#ffffff;fill-opacity:1;stroke-width:0.9729"
       id="rect1578"
       width="548.00073"
       height="283.53836"
       x="3.5287354"
       y="5.7104278" />
    <path
       style="fill:#000000;stroke-width:1.0862"
       d="M -4.1246146,145.72068 V -6.0227629 H 276.93461 557.99386 V 145.72068 297.46412 H 276.93461 -4.1246146 Z m 44.1209476,22.14479 c 6.782337,-3.55022 9.946246,-9.27574 9.402949,-17.0159 -0.574787,-8.18861 -3.895828,-11.25522 -18.078178,-16.69315 -13.173828,-5.05126 -16.614464,-8.1054 -15.686351,-13.92437 0.799146,-5.01034 2.278187,-6.5898 7.514113,-8.02426 6.129659,-1.67929 11.510483,0.11954 15.240444,5.095 2.416921,3.22397 3.498021,3.83246 6.314863,3.55428 6.966019,-0.68797 3.240967,-9.32217 -6.15925,-14.2764 -6.813289,-3.59083 -17.352702,-3.33174 -23.146104,0.56895 -7.2755268,4.89862 -10.4213316,13.68458 -7.6063078,21.24371 2.0996764,5.63824 5.4140918,7.9679 16.3572958,11.49739 15.576521,5.0239 19.667489,9.91182 15.370935,18.36522 -2.616608,5.14814 -11.635651,7.14275 -17.750356,3.92561 -1.690208,-0.88928 -4.128602,-3.35441 -5.418629,-5.4781 -1.825945,-3.00593 -3.049139,-3.86123 -5.522036,-3.86123 -4.2063803,0 -5.0867576,2.65303 -2.4843286,7.4865 5.6065046,10.41284 19.7310206,13.7762 31.6509406,7.53675 z m 234.337707,1.29703 c 6.81922,-2.11884 11.21543,-9.29993 11.21543,-18.32014 0,-7.62263 -5.32313,-12.60348 -17.76814,-16.62569 -2.36908,-0.7657 -6.14472,-2.33196 -8.3903,-3.48059 -8.89362,-4.54916 -10.49378,-9.32654 -5.15873,-15.40157 2.74373,-3.12428 3.81562,-3.57807 8.45182,-3.57807 6.34672,0 10.64481,2.10986 12.75471,6.26108 1.23753,2.43479 2.29457,3.0517 5.22888,3.0517 4.80188,0 5.46257,-1.35546 3.07496,-6.3087 -5.97058,-12.38644 -26.61398,-14.45264 -36.22766,-3.62601 -4.8625,5.47601 -5.9069,10.59535 -3.48037,17.05986 2.20546,5.87553 5.16137,7.86944 18.83905,12.70793 12.07568,4.27175 14.06092,5.96455 14.06092,11.98972 0,5.62446 -3.35195,9.26883 -9.49657,10.32506 -6.45783,1.11004 -11.27936,-0.87964 -14.63559,-6.03962 -2.38847,-3.67209 -3.39397,-4.33524 -6.57352,-4.33524 -4.34772,0 -4.72803,1.41449 -1.97012,7.32763 1.98108,4.24754 8.16401,8.92015 13.5461,10.23717 3.84141,0.94002 11.30778,0.37783 16.52913,-1.24452 z M 67.213128,168.45481 c 0.921784,-1.05453 2.270629,-3.96376 2.997458,-6.46494 1.086403,-3.73859 1.895528,-4.6644 4.548245,-5.20419 4.152018,-0.84488 22.734225,-0.85471 24.889672,-0.0132 0.906407,0.35387 2.426357,3.0276 3.377647,5.94158 0.9513,2.91398 2.40063,5.86477 3.22077,6.55727 2.13403,1.80194 7.62482,0.97364 7.22878,-1.09047 -0.17343,-0.90387 -5.21685,-15.59535 -11.20757,-32.64767 l -10.892238,-31.00428 -4.892099,0.32689 -4.892104,0.32686 -7.644867,21.36461 c -4.204673,11.75052 -9.424833,26.41813 -11.600352,32.59471 l -3.95551,11.23011 h 3.573107 c 2.04659,0 4.289115,-0.81913 5.249061,-1.91734 z m 8.944681,-19.90171 c -0.581406,-0.95714 8.201927,-28.03451 9.533177,-29.38894 0.352129,-0.35826 0.950834,-0.33535 1.33046,0.0509 1.25827,1.28017 10.958984,28.68128 10.450365,29.51857 -0.71912,1.18385 -20.587447,1.01555 -21.314002,-0.18052 z m 57.555041,8.06377 v -13.7553 l 4.96995,0.33394 4.96996,0.33392 7.66406,13.42136 7.66407,13.42136 h 5.10461 5.10461 l -7.5085,-12.64929 c -4.12969,-6.9571 -7.50851,-13.10732 -7.50851,-13.66712 0,-0.55981 1.33259,-1.72602 2.96133,-2.59159 11.80183,-6.27184 14.68096,-21.1882 5.8977,-30.55518 -4.18869,-4.46705 -11.60375,-6.27405 -25.74575,-6.27405 H 125.098 v 32.86861 32.86862 h 4.30742 4.30743 z m 0,-32.80858 v -12.59966 l 6.1919,0.006 c 7.56991,0.007 13.74267,1.65029 16.41436,4.36855 3.03428,3.08717 3.88946,11.12558 1.56719,14.73157 -2.92998,4.54917 -6.99391,6.09258 -16.04357,6.09258 h -8.12988 z m 52.61963,45.09975 c 0.65687,-0.80527 1.94192,-3.62008 2.8557,-6.25511 0.91378,-2.63504 2.25288,-5.17332 2.97576,-5.64064 1.55697,-1.00647 20.62155,-1.17263 25.30068,-0.2205 2.73384,0.55631 3.46722,1.42721 4.56688,5.42327 1.64903,5.99238 4.20658,8.41529 8.40262,7.96024 l 3.23634,-0.35096 -11.51443,-32.32081 -11.51446,-32.32081 -4.87591,-0.32538 -4.87593,-0.32536 -11.38152,32.09836 c -6.25985,17.65412 -11.16978,32.46815 -10.91094,32.9201 0.79238,1.38357 6.46702,0.9123 7.73521,-0.6424 z m 8.38907,-20.17441 c -0.50861,-0.8373 9.19209,-28.2384 10.45034,-29.51858 1.14214,-1.16203 1.62507,-0.1159 6.68428,14.47944 3.78556,10.92105 4.55557,14.23094 3.47316,14.92961 -1.74546,1.12664 -19.93122,1.22329 -20.60778,0.10957 z m 108.84305,20.26899 c 0.57708,-0.75324 1.9436,-3.95793 3.03674,-7.12152 l 1.98753,-5.75202 h 14.20661 14.20663 l 2.47104,7.12153 2.47106,7.12154 h 4.62387 4.62388 l -2.67769,-7.39544 c -1.47273,-4.06749 -6.7362,-18.73512 -11.69663,-32.59472 l -9.01894,-25.19927 -4.83607,-0.32828 c -3.84848,-0.26127 -4.98854,0.0742 -5.58271,1.64342 -1.66997,4.41013 -20.87107,59.12399 -21.55072,61.40913 -0.66138,2.22376 -0.36992,2.46516 2.97652,2.46516 2.04034,0 4.18184,-0.61629 4.75888,-1.36953 z m 8.44279,-20.41945 c -0.5267,-0.86707 5.20567,-17.63563 9.35944,-27.37857 1.95539,-4.58648 1.98559,-4.53755 7.87344,12.75472 3.53499,10.38202 4.38635,14.06887 3.39649,14.70866 -1.83209,1.1842 -19.90366,1.10989 -20.62937,-0.0849 z m 111.87745,18.02246 c 6.28653,-3.1293 10.16609,-7.11213 13.60163,-13.96367 3.12143,-6.22514 3.06838,-22.82573 -0.0948,-29.67241 -6.23863,-13.5033 -17.03745,-18.3073 -41.19537,-18.32635 l -10.49934,-0.008 v 33.02776 33.02778 l 16.16174,-0.58282 c 14.67878,-0.52935 16.69981,-0.85066 22.0261,-3.50201 z m -29.57299,-24.9695 c 0,-12.36631 0.30286,-24.02495 0.67302,-25.90808 l 0.67303,-3.4238 h 9.32891 c 11.32773,0 17.09746,2.48872 22.42283,9.67186 3.40852,4.59754 3.51528,5.06509 3.51528,15.39328 0,9.70172 -0.258,11.05653 -2.89247,15.19033 -4.52372,7.09816 -11.17725,10.19225 -23.52989,10.94208 l -10.19071,0.61858 z m 89.53817,27.46243 c 13.02883,-3.97154 16.78498,-18.73807 7.23733,-28.45208 l -4.32873,-4.40418 3.80261,-3.75741 c 4.83697,-4.77947 5.87819,-9.789 3.4044,-16.37937 -3.3428,-8.90558 -9.75912,-11.45527 -28.85055,-11.46448 l -12.65305,-0.006 v 32.86861 32.86864 h 13.60495 c 7.48275,0 15.48512,-0.57313 17.78304,-1.2736 z m -23.83353,-15.82147 c 0.009,-5.9638 0.44593,-11.53332 0.9708,-12.37674 1.30299,-2.0938 16.76646,-1.02365 21.54616,1.49112 3.77799,1.9877 6.9209,7.96508 5.89487,11.21121 -2.45473,7.76636 -4.91616,9.08744 -18.46739,9.91177 l -9.96092,0.60593 0.0165,-10.84329 z m 0.21233,-30.29054 0.30962,-10.13448 9.15327,-0.29216 c 7.57987,-0.24194 9.7499,0.0819 12.62414,1.88337 4.25843,2.66913 5.34467,6.52292 3.34785,11.87748 -1.90931,5.11985 -5.86048,6.65366 -17.35848,6.73844 l -8.38604,0.0619 z"
       id="path1576" />
  </g>
</svg>
