<?xml version="1.0" encoding="UTF-8" standalone="no"?>
<svg
   xmlns:dc="http://purl.org/dc/elements/1.1/"
   xmlns:cc="http://creativecommons.org/ns#"
   xmlns:rdf="http://www.w3.org/1999/02/22-rdf-syntax-ns#"
   xmlns:svg="http://www.w3.org/2000/svg"
   xmlns="http://www.w3.org/2000/svg"
   xmlns:sodipodi="http://sodipodi.sourceforge.net/DTD/sodipodi-0.dtd"
   xmlns:inkscape="http://www.inkscape.org/namespaces/inkscape"
   version="1.1"
   id="svg2"
   width="627"
   height="158"
   viewBox="0 0 627 158"
   sodipodi:docname="sarasa-db-logo.svg"
   inkscape:version="1.0.2 (e86c870879, 2021-01-15)">
  <metadata
     id="metadata8">
    <rdf:RDF>
      <cc:Work
         rdf:about="">
        <dc:format>image/svg+xml</dc:format>
        <dc:type
           rdf:resource="http://purl.org/dc/dcmitype/StillImage" />
        <dc:title></dc:title>
      </cc:Work>
    </rdf:RDF>
  </metadata>
  <defs
     id="defs6" />
  <sodipodi:namedview
     pagecolor="#ffffff"
     bordercolor="#666666"
     borderopacity="1"
     objecttolerance="10"
     gridtolerance="10"
     guidetolerance="10"
     inkscape:pageopacity="0"
     inkscape:pageshadow="2"
     inkscape:window-width="1920"
     inkscape:window-height="1007"
     id="namedview4"
     showgrid="false"
     inkscape:zoom="1.738437"
     inkscape:cx="313.5"
     inkscape:cy="79"
     inkscape:window-x="0"
     inkscape:window-y="0"
     inkscape:window-maximized="1"
     inkscape:current-layer="g10" />
  <g
     inkscape:groupmode="layer"
     inkscape:label="Image"
     id="g10">
    <path
       style="fill:#000000"
       d="m 49.142302,106.76793 c 0,-1.21419 1.599223,-1.5 8.393011,-1.5 9.285192,0 9.606989,-0.22721 9.606989,-6.78319 0,-3.92444 -5.518291,-14.216812 -7.622394,-14.216812 -0.6599,0 -2.294562,-1.301028 -3.632582,-2.891174 -1.880669,-2.235049 -3.033337,-2.776368 -5.079154,-2.385285 -2.211338,0.422724 -2.547973,0.898018 -2.047722,2.891174 0.53793,2.143284 0.272447,2.385285 -2.616729,2.385285 -2.669168,0 -3.093411,-0.297288 -2.497321,-1.75 1.36557,-3.327988 1.007747,-4.747348 -1.278732,-5.072295 -1.251048,-0.177795 -2.992042,-1.418168 -3.868876,-2.756385 -1.323384,-2.019739 -1.388623,-2.929531 -0.383991,-5.354926 0.665638,-1.606993 2.069132,-3.699082 3.118876,-4.649087 1.049744,-0.950005 1.908625,-2.487793 1.908625,-3.417307 0,-1.847835 3.001714,-5 4.761353,-5 0.607129,0 1.398227,-0.927431 1.757994,-2.060958 0.359768,-1.133527 1.852592,-2.594019 3.317388,-3.245539 1.464796,-0.65152 3.483426,-2.199089 4.485845,-3.439042 1.002419,-1.239954 2.701169,-2.254461 3.775,-2.254461 1.361835,0 2.130821,-0.892004 2.542197,-2.948884 1.259435,-6.297175 8.817163,-8.545838 12.873592,-3.830299 1.107353,1.287281 3.437518,2.930413 5.178145,3.651404 1.740627,0.720991 3.386402,1.888442 3.657282,2.594336 0.27087,0.705894 1.67683,1.283443 3.12435,1.283443 1.44751,0 3.64972,0.95625 4.8938,2.125 1.24408,1.16875 3.03262,2.125 3.97454,2.125 1.51634,0 3.226482,1.311364 10.758782,8.25 2.36418,2.177848 2.52551,7.985761 0.27373,9.854575 -1.31394,1.090465 -1.52057,2.607091 -1.07666,7.90211 0.53944,6.434469 0.50578,6.55074 -1.86676,6.44688 -3.28096,-0.143626 -3.80165,-0.891692 -2.41896,-3.475278 1.60577,-3.000407 0.0671,-4.33891 -3.450432,-3.001549 -2.08022,0.790899 -2.58749,1.480782 -2.04939,2.78716 1.96749,4.776561 1.83481,5.236102 -1.5118,5.236102 -2.77214,0 -3.14532,-0.285237 -2.61663,-2 0.33915,-1.1 0.89412,-2.9 1.23327,-4 0.36198,-1.174082 0.1555,-2 -0.5,-2 -0.61415,0 -1.11664,0.422305 -1.11664,0.938455 0,0.51615 -2.7,4.521625 -6,8.901055 -6.076638,8.064313 -6.981275,10.898887 -5.381946,16.863702 0.505624,1.88576 1.392813,2.24598 6.157346,2.5 3.33655,0.17789 5.73178,0.79755 5.97893,1.54679 0.32172,0.97527 -4.55108,1.25 -22.170993,1.25 -19.407407,0 -22.583333,-0.21095 -22.583333,-1.5 z m 29.240668,-7.750002 -0.354119,-6.25 5.556726,-6.883139 c 3.056201,-3.785726 5.556721,-7.303868 5.556721,-7.818094 0,-1.590864 -5.499261,2.884168 -9.411697,7.65878 -2.047209,2.498349 -4.545454,4.542453 -5.551656,4.542453 -2.036859,0 -7.498953,-5.730527 -8.515789,-8.934294 -0.67676,-2.132283 -2.520854,-2.875556 -2.520854,-1.016046 0,1.381201 2.811346,6.776049 5.250087,10.074683 1.540929,2.084255 1.869192,3.885372 1.595069,8.751822 l -0.345156,6.127477 4.547393,-0.002 4.547393,-0.002 z M 76.594537,84.700482 c 1.622352,-2.476021 1.586846,-2.692535 -0.997105,-6.080269 -2.250183,-2.950142 -3.101566,-3.406856 -5.315196,-2.85127 -1.449709,0.363854 -2.782438,0.808156 -2.961621,0.987338 -0.473334,0.473334 2.800082,6.71194 4.597264,8.761647 2.042736,2.329765 2.688483,2.216893 4.676658,-0.817446 z M 60.142302,78.767928 c 0,-1.555556 -0.566667,-2.5 -1.5,-2.5 -1.800266,0 -1.968539,2.131461 -0.3,3.8 1.655214,1.655214 1.8,1.550647 1.8,-1.3 z m 22.48185,-0.470632 c 0.329936,-0.533848 -0.129941,-2.381958 -1.021949,-4.106911 -1.596581,-3.087447 -1.644413,-3.104041 -3.072074,-1.06577 -1.191996,1.701813 -1.22378,2.433132 -0.178487,4.106911 1.35759,2.173848 3.289796,2.655834 4.27251,1.06577 z M 52.147125,74.258917 c 0.804804,-1.503791 1.695654,-1.853285 3.542469,-1.389764 1.477316,0.370783 3.384542,0.01823 4.753372,-0.878658 1.949356,-1.277267 2.56253,-1.29577 4.162809,-0.125618 2.793991,2.043016 9.514354,0.777118 12.35126,-2.326575 1.896459,-2.074806 2.709613,-2.352971 4.5,-1.539368 1.495887,0.679774 2.755813,0.64224 3.993833,-0.118979 1.43164,-0.880264 2.07986,-0.747301 3.11025,0.637973 0.71592,0.9625 1.98446,1.75 2.81898,1.75 0.83452,0 2.07752,0.675 2.7622,1.5 1.30885,1.577066 3.98844,1.877773 7.750002,0.869714 1.54569,-0.414227 2.25,-1.358868 2.25,-3.01773 0,-1.328115 0.675,-2.673775 1.5,-2.990358 2.4954,-0.957574 1.59164,-7.361626 -1.03889,-7.361626 -0.7287,0 -2.2862,-1.35 -3.46111,-3 -1.505832,-2.114755 -2.965342,-3 -4.946122,-3 -1.79487,0 -3.34332,-0.80332 -4.28647,-2.223789 -1.06426,-1.602865 -2.32145,-2.159409 -4.50252,-1.993218 -2.27555,0.173391 -3.43331,-0.391095 -4.668485,-2.276211 -0.903379,-1.37873 -2.521759,-2.506782 -3.596401,-2.506782 -1.074642,0 -2.660224,-1.077996 -3.523517,-2.395547 -3.198873,-4.882097 -7.686325,-3.757699 -9.203791,2.306147 -0.526272,2.103002 -1.538882,3.511194 -2.641185,3.672978 -3.447674,0.506011 -4.631507,1.371241 -4.631507,3.385037 0,1.510038 -0.653552,2.031385 -2.54651,2.031385 -1.773072,0 -3.06297,0.899879 -4.246929,2.962807 -0.93523,1.629545 -2.6018,3.092045 -3.703489,3.25 -1.4457,0.207279 -2.089262,1.178059 -2.312819,3.488768 -0.208364,2.153678 -0.963554,3.409086 -2.307284,3.835569 -2.100809,0.666771 -4.297245,4.983526 -3.331106,6.546772 0.311394,0.503846 1.863056,0.916084 3.448137,0.916084 1.585081,0 3.160081,0.45 3.5,1 1.022254,1.654041 3.35981,1.130464 4.504823,-1.009011 z M 95.632588,66.46804 c 1.18138,-6.297294 2.80309,-7.078179 4.04991,-1.950112 1.196512,4.921119 1.166722,5.005105 -1.8907,5.331079 -2.77788,0.29617 -2.83289,0.21004 -2.15921,-3.380967 z m -41.490286,0.669302 c 0,-0.493103 0.417151,-1.677946 0.927002,-2.632983 0.509851,-0.955037 1.181673,-2.552453 1.492937,-3.549813 0.7734,-2.478147 2.194913,-1.362359 2.926861,2.29738 0.899038,4.495193 0.913187,4.467136 -2.335156,4.630504 -1.656404,0.0833 -3.011644,-0.251985 -3.011644,-0.745088 z m 11.399922,-0.03134 c -0.257222,-0.416194 -0.03528,-1.562521 0.493203,-2.547394 0.528484,-0.984872 1.21555,-2.606699 1.526814,-3.604059 0.7734,-2.478147 2.194913,-1.362359 2.926861,2.29738 0.332818,1.66409 0.72844,3.360954 0.879162,3.77081 0.361357,0.982637 -5.22089,1.062416 -5.82604,0.08326 z M 84.552378,61.86358 c 0.30944,-1.152609 0.56876,-2.883152 0.57627,-3.845652 0.008,-0.9625 0.68865,-1.75 1.51365,-1.75 0.825,0 1.5,0.873442 1.5,1.940983 0,1.067541 0.45,2.219098 1,2.559017 2.2156,1.369311 0.95192,3.364867 -2.07626,3.278768 -2.61888,-0.07446 -2.99262,-0.399054 -2.51366,-2.183116 z M 69.142302,54.422259 c 0,-0.281784 0.5404,-2.006784 1.200888,-3.833333 1.749581,-4.83838 2.997473,-4.465481 4.224364,1.262335 0.624091,2.913607 0.492948,3.083334 -2.382403,3.083334 -1.673567,0 -3.042849,-0.230551 -3.042849,-0.512336 z m 18.553856,19.758537 c 0.85812,-1.388479 -1.04396,-3.346034 -2.42305,-2.493711 -1.14845,0.709784 -0.41308,3.580843 0.91717,3.580843 0.45869,0 1.13634,-0.48921 1.50588,-1.087132 z m 8.63781,33.012134 c 0.19708,-0.59125 0.78583,-1.075 1.30833,-1.075 0.5225,0 1.11125,0.48375 1.30834,1.075 0.19708,0.59125 -0.39167,1.075 -1.30834,1.075 -0.91666,0 -1.50541,-0.48375 -1.30833,-1.075 z m 36.731412,-2.84808 c -2.2748,-2.27479 -2.92308,-3.82726 -2.92308,-6.999999 v -4.076923 h 18.03138 c 15.32939,0 18.12012,0.231238 18.62354,1.543128 0.32569,0.848721 0.27563,1.861221 -0.11124,2.25 -0.38687,0.38878 -7.97996,0.931872 -16.87354,1.206872 l -16.17014,0.5 2.25,2.250002 c 2.12449,2.12449 3.05129,2.25 16.61514,2.25 13.01863,0 14.61212,-0.19427 17,-2.07258 3.30154,-2.59699 3.61252,-7.949762 0.63486,-10.927422 -1.80996,-1.80996 -3.33333,-2 -16.03212,-2 -15.89968,0 -19.90852,-1.050741 -22.40146,-5.871562 -3.25806,-6.300396 -0.99868,-13.746371 5.04077,-16.61228 4.42672,-2.100614 31.22789,-2.169924 35.24778,-0.09115 3.15929,1.633725 5.14503,5.347393 5.14503,9.622045 v 2.952947 h -18.5 c -17.83333,0 -18.5,-0.07207 -18.5,-2 0,-1.916667 0.66667,-2 16,-2 12.46154,0 16,-0.2875 16,-1.3 0,-3.214893 -2.37669,-3.7 -18.12742,-3.7 h -15.72742 l -2.07258,2.634859 c -1.13992,1.449172 -2.07258,3.413486 -2.07258,4.365141 0,0.951655 0.93266,2.915969 2.07258,4.365141 2.05125,2.607738 2.20822,2.634916 15.25,2.640436 7.24758,0.0031 14.84445,0.468567 16.88193,1.034445 7.00417,1.945291 10.4344,9.703976 7.2537,16.40681 -2.79245,5.88464 -5.18835,6.55317 -23.48547,6.55317 h -16.12659 z m 53.24548,-2.84947 c 20.54561,-36.115445 21.24509,-37.199956 24.00199,-37.213923 2.60383,-0.01319 2.40797,0.439947 -7.83867,18.135768 -12.80861,22.120295 -12.37751,21.098155 -8.72215,20.680405 2.57534,-0.29433 3.87979,-2.04644 12.15751,-16.329702 5.09996,-8.8 9.60117,-16.096386 10.0027,-16.214191 0.60936,-0.178778 20.03277,32.793263 21.06339,35.755973 0.19418,0.55819 -2.96236,0.95822 -7.56112,0.95822 h -7.89446 l -4.11295,-7.13515 c -3.36437,-5.836512 -3.90833,-7.462784 -2.98872,-8.935315 1.50019,-2.402182 1.95989,-1.987942 6.19177,5.579365 3.22336,5.7639 3.96989,6.4911 6.66363,6.4911 h 3.03361 l -3.09671,-5.250002 c -1.70318,-2.8875 -4.77783,-8.284223 -6.83254,-11.992718 -2.05471,-3.708495 -4.06912,-6.633495 -4.47646,-6.5 -0.40734,0.133495 -4.24902,6.317718 -8.53707,13.742718 l -7.79645,13.500002 -8.29437,0.29176 -8.29437,0.29176 z m 57.83144,-6.227452 v -12 h 19 c 17.66667,0 19.14035,-0.140351 21,-2 1.11111,-1.111111 2,-3.333333 2,-5 0,-1.666667 -0.88889,-3.888889 -2,-5 -1.84314,-1.843137 -3.33333,-2 -19,-2 h -17 v 2.475229 2.475228 l 16.25,0.274772 c 13.65566,0.230903 16.25,0.514249 16.25,1.774771 0,1.268582 -2.81558,1.54205 -18.25,1.772559 l -18.25,0.272558 v -7.022558 -7.022559 l 18.25,0.0016 c 21.11748,0.0018 23.91599,0.765754 27.16184,7.414823 1.73611,3.556378 1.78207,4.288752 0.5,7.9674 -0.88756,2.54669 -2.67363,4.89866 -4.80972,6.333624 -3.2036,2.152034 -4.36149,2.282553 -20.25,2.282553 H 248.1423 v 7.5 c 0,7.333332 0.0556,7.500002 2.5,7.500002 2.33333,0 2.5,-0.33333 2.5,-5.000002 v -5 l 9.25,0.001 9.25,10e-4 2.80769,4.998984 c 2.17229,3.867698 3.36039,4.998988 5.25,4.998988 2.96349,0 3.04561,-0.96216 0.44605,-5.225835 -2.54724,-4.177814 -2.51185,-4.774137 0.28327,-4.774137 1.76306,0 3.13762,1.478962 6,6.455704 2.04214,3.550638 3.71299,6.700638 3.71299,6.999998 0,0.29937 -3.56628,0.5443 -7.92508,0.5443 h -7.92507 l -2.33943,-4.25 c -2.28753,-4.155731 -2.46665,-4.256654 -8.07492,-4.549906 l -5.7355,-0.299904 v 4.5499 4.54991 h -7 -7 z m 54.6688,8.792442 c 1.05403,-1.81084 6.62225,-11.50412 12.37381,-21.540615 8.68427,-15.154068 10.83889,-18.248483 12.70739,-18.25 1.2375,-0.001 2.25,0.266599 2.25,0.594675 0,0.328076 -4.725,8.803338 -10.5,18.833916 -5.775,10.030578 -10.5,18.567044 -10.5,18.969924 0,0.40288 1.22295,0.59011 2.71768,0.41608 2.36335,-0.27517 3.94638,-2.44453 12.1418,-16.638909 7.62047,-13.198587 9.66021,-16.069382 10.65771,-15 1.29735,1.390833 20.48281,34.484519 20.48281,35.331529 0,0.27003 -3.5418,0.49096 -7.87067,0.49096 h -7.87068 l -4.11303,-7.10422 c -3.68599,-6.366597 -3.96893,-7.309962 -2.72502,-9.08589 1.30591,-1.864443 1.63707,-1.562473 5.59768,5.104214 3.34185,5.625176 4.70152,7.085896 6.59569,7.085896 1.31231,0 2.38603,-0.42464 2.38603,-0.94365 0,-1.12565 -10.78896,-19.974465 -12.53197,-21.893926 -0.98013,-1.079358 -2.74243,1.33374 -9.12881,12.5 l -7.9142,13.837576 -8.33633,0.29244 -8.33633,0.29245 z m 62.59257,1.67808 c -2.07186,-1.45119 -4.24369,-6.922119 -4.25579,-10.720522 -0.005,-1.603911 1.54141,-1.75 18.5258,-1.75 16.06908,0 18.61302,0.212719 19.14572,1.600925 1.07646,2.805212 -1.8225,3.368093 -17.4271,3.383762 -8.3875,0.0084 -15.25,0.395569 -15.25,0.860325 0,0.464757 0.82293,1.58976 1.82874,2.5 1.52512,1.38021 4.24219,1.65499 16.36514,1.65499 13.19189,0 14.78011,-0.1917 17.17126,-2.07258 3.4442,-2.709208 3.59229,-7.679334 0.32041,-10.753108 -2.15253,-2.0222 -3.31034,-2.174314 -16.54966,-2.174314 -15.20238,0 -18.47555,-0.791439 -21.57519,-5.216795 -1.86933,-2.668844 -2.01593,-9.313138 -0.28205,-12.783205 2.45158,-4.906403 6.71508,-5.996738 23.45557,-5.998446 15.20738,-0.0016 15.23965,0.0033 18.31175,2.748446 2.21127,1.975942 3.23879,3.952622 3.65047,7.022561 l 0.57295,4.27256 -18.88469,-0.27256 c -15.9986,-0.230906 -18.8847,-0.501803 -18.8847,-1.772561 0,-1.260522 2.59434,-1.543868 16.25,-1.774771 12.36115,-0.209015 16.25,-0.579952 16.25,-1.55 0,-3.184515 -2.40678,-3.675229 -18.02569,-3.675229 -15.04037,0 -15.70713,0.0867 -17.8,2.314451 -2.72786,2.903679 -2.78135,6.656842 -0.13535,9.496988 1.89295,2.03185 2.95807,2.188561 14.875,2.188561 15.70716,0 18.43806,0.505865 22.00912,4.076923 5.19007,5.190076 4.55467,13.042319 -1.43676,17.755179 -2.57644,2.02662 -3.84059,2.1679 -19.39867,2.1679 -13.31757,0 -17.07891,-0.30558 -18.82628,-1.52948 z m 49.9053,0.68504 c 0.18333,-0.46444 5.6824,-10.139439 12.22014,-21.499999 10.18234,-17.693713 12.22568,-20.655563 14.25,-20.655563 1.29976,0 2.36319,0.189609 2.36319,0.421354 0,0.231744 -4.725,8.634625 -10.5,18.673069 -5.775,10.038443 -10.5,18.623839 -10.5,19.078649 0,0.45481 1.10515,0.82693 2.45589,0.82693 1.99572,0 3.24304,-1.35845 6.65689,-7.250002 2.31056,-3.9875 6.72759,-11.592133 9.81564,-16.899185 l 5.61463,-9.649185 10.47848,18.093576 c 5.76316,9.951467 10.62847,18.456106 10.8118,18.899186 0.18334,0.44309 -3.28431,0.80561 -7.70589,0.80561 h -8.03922 l -4.08356,-6.99203 c -3.36421,-5.76031 -3.89426,-7.345745 -3.00893,-8.999997 0.59105,-1.104386 1.23252,-2.007975 1.42549,-2.007975 0.19297,0 2.22223,3.15 4.50947,7 3.34883,5.636912 4.63675,7.000002 6.61397,7.000002 1.35044,0 2.45534,-0.34086 2.45534,-0.75748 0,-1.28421 -12.57007,-22.454459 -13.42071,-22.602881 -0.44017,-0.0768 -4.39718,6.047859 -8.79335,13.610359 l -7.99303,13.750002 h -7.97979 c -4.38888,0 -7.82979,-0.38 -7.64645,-0.84444 z M 499.1423,90.767928 v -16.5 h 14.04966 c 15.00462,0 18.29831,0.80331 21.38964,5.216795 2.30223,3.286894 1.99692,9.95892 -0.6072,13.269526 -3.17115,4.03147 -7.68739,5.513679 -16.79998,5.513679 h -8.03212 v -7.5 c 0,-6.833333 0.17778,-7.5 2,-7.5 1.73333,0 2,0.666667 2,5 v 5 h 7.04545 c 6.14703,0 7.35846,-0.313001 9.5,-2.454545 2.96358,-2.963575 3.15907,-6.840937 0.47999,-9.520019 -2.75316,-2.753157 -5.0924,-3.152024 -16.52544,-2.817783 l -10,0.292347 v 12 12.000002 h 13 c 11.90764,0 13.31772,-0.19753 16.78109,-2.35077 4.81828,-2.99562 7.71891,-8.61789 7.71891,-14.961511 0,-5.687906 -2.66744,-10.373092 -7.92168,-13.913924 -3.14557,-2.119803 -4.41382,-2.273797 -18.7262,-2.273797 H 499.1423 V 66.68007 64.092213 l 15.75,0.337857 c 15.12197,0.324386 15.93835,0.448575 20.47342,3.114436 14.62015,8.59419 13.73558,30.239849 -1.53793,37.633634 -3.7977,1.83843 -6.14328,2.08979 -19.50121,2.08979 H 499.1423 Z m 48,4.5 v -12 h 7 7 v 5 5 h 11.03138 c 9.19227,0 11.13381,0.266901 11.64572,1.600925 1.06847,2.784389 -1.83621,3.407793 -14.6771,3.150012 l -12.5,-0.250937 -0.30479,-4.75 c -0.27674,-4.312775 -0.5339,-4.75 -2.79381,-4.75 -2.45017,0 -2.48443,0.113168 -2.19521,7.25 l 0.29381,7.250002 16.08466,0.27398 c 15.04317,0.25624 16.25724,0.13822 18.75,-1.82258 3.43439,-2.701498 3.66343,-7.943632 0.47678,-10.912447 -1.87762,-1.749265 -3.51151,-2.038955 -11.5,-2.038955 -9.26554,0 -9.31144,-0.01232 -9.31144,-2.5 0,-2.497376 0.0103,-2.5 9.84501,-2.5 8.2677,0 10.11017,-0.292991 11.5,-1.828741 2.27705,-2.516105 2.10033,-7.725921 -0.34501,-10.171259 -1.84314,-1.843137 -3.33333,-2 -19,-2 h -17 v 2.475229 2.475228 l 16.23728,0.274772 c 14.54163,0.246077 16.27238,0.457523 16.57333,2.024771 0.31029,1.615914 -1.08706,1.75 -18.23729,1.75 H 547.1423 v -7 -7 h 18.03212 c 20.31576,0 23.58988,0.750644 26.99851,6.189824 2.51913,4.019812 2.12606,9.942238 -0.87331,13.158469 -1.97268,2.115296 -1.97461,2.190989 -0.1139,4.473063 4.41719,5.417501 2.96653,13.969406 -2.96387,17.472586 -2.45075,1.44769 -5.78004,1.70606 -21.98384,1.70606 H 547.1423 Z"
       id="path14" />
  </g>
</svg>
