<?xml version="1.0" encoding="UTF-8" standalone="no"?>
<svg
   xmlns:dc="http://purl.org/dc/elements/1.1/"
   xmlns:cc="http://creativecommons.org/ns#"
   xmlns:rdf="http://www.w3.org/1999/02/22-rdf-syntax-ns#"
   xmlns:svg="http://www.w3.org/2000/svg"
   xmlns="http://www.w3.org/2000/svg"
   xmlns:sodipodi="http://sodipodi.sourceforge.net/DTD/sodipodi-0.dtd"
   xmlns:inkscape="http://www.inkscape.org/namespaces/inkscape"
   version="1.1"
   id="svg901"
   width="224"
   height="295.46667"
   viewBox="0 0 224 295.46667"
   sodipodi:docname="sarasa-db-logotipo.svg"
   inkscape:version="1.0.2 (e86c870879, 2021-01-15)">
  <metadata
     id="metadata907">
    <rdf:RDF>
      <cc:Work
         rdf:about="">
        <dc:format>image/svg+xml</dc:format>
        <dc:type
           rdf:resource="http://purl.org/dc/dcmitype/StillImage" />
        <dc:title />
      </cc:Work>
    </rdf:RDF>
  </metadata>
  <defs
     id="defs905" />
  <sodipodi:namedview
     pagecolor="#ffffff"
     bordercolor="#666666"
     borderopacity="1"
     objecttolerance="10"
     gridtolerance="10"
     guidetolerance="10"
     inkscape:pageopacity="0"
     inkscape:pageshadow="2"
     inkscape:window-width="1920"
     inkscape:window-height="1007"
     id="namedview903"
     showgrid="false"
     inkscape:zoom="8.3664258"
     inkscape:cx="51.78308"
     inkscape:cy="4.1065628"
     inkscape:window-x="0"
     inkscape:window-y="0"
     inkscape:window-maximized="1"
     inkscape:current-layer="g909"
     inkscape:document-rotation="0" />
  <g
     inkscape:groupmode="layer"
     inkscape:label="Image"
     id="g909">
    <rect
       style="fill:#ffffff;stroke-width:0.950889"
       id="rect915"
       width="215.88542"
       height="278.6156"
       x="2.4567418"
       y="6.6405888" />
    <path
       style="fill:#000000;stroke-width:1.0674"
       d="M 0.06263172,147.83527 V 0.01178172 H 112.1466 224.23057 V 147.83527 295.65878 H 112.1466 0.06263172 Z M 145.51372,224.12726 c 43.77384,-5.01477 77.65314,-48.6635 72.34803,-93.21031 -1.40744,-11.81812 -3.10787,-17.366 -9.34629,-30.49332 C 204.289,91.529983 202.47495,89.115507 192.81601,79.527895 183.39906,70.180479 180.51045,68.012636 171.83949,63.785539 158.81699,57.437067 151.71374,55.62307 136.69356,54.810124 127.29428,54.301404 122.28518,54.568546 115.34422,55.948739 104.03693,58.19717 87.495565,66.081469 78.281331,73.614434 65.63746,83.951253 55.298443,99.532375 50.278192,115.81575 45.49701,131.32367 46.60474,155.606 52.792075,170.92213 l 2.4955,6.17739 -4.61844,14.71913 c -2.540132,8.09551 -4.638004,16.02302 -4.661943,17.61668 -0.07486,4.98765 2.341085,5.37314 21.214424,3.38488 l 17.000376,-1.79094 4.05524,2.3923 c 6.680854,3.94127 21.229578,9.59587 27.278518,10.6023 7.93698,1.32052 19.00028,1.35872 29.95797,0.10341 z m -6.70753,-36.66748 -15.45119,-8.93845 -17.36768,1.96638 c -19.524999,2.21059 -22.662311,1.80756 -22.662311,-2.91108 0,-1.57559 1.983678,-9.47448 4.408175,-17.55309 l 4.408162,-14.6884 -4.837505,-13.15871 c -8.317891,-22.62585 -8.64913,-25.72635 -2.871851,-26.88167 1.748301,-0.34961 9.261058,-0.17145 16.695,0.39587 l 13.51627,1.03154 10.76068,-10.465086 c 12.43791,-12.096269 15.57632,-14.399795 18.23107,-13.381205 2.03516,0.780859 6.93922,10.756876 11.82889,24.062771 l 3.01335,8.20001 13.75186,5.05832 c 7.56352,2.78211 14.91243,5.97113 16.33094,7.08677 4.67723,3.67861 3.47979,6.06696 -10.15575,20.25591 l -12.73482,13.25167 -1.19083,10.82057 c -2.50085,22.72423 -3.15442,24.73292 -8.05926,24.77 -1.18912,0.009 -9.11505,-4.00596 -17.6132,-8.92212 z"
       id="path913" />
  </g>
</svg>
