<?xml version="1.0" encoding="UTF-8" standalone="no"?>
<svg
   xmlns:dc="http://purl.org/dc/elements/1.1/"
   xmlns:cc="http://creativecommons.org/ns#"
   xmlns:rdf="http://www.w3.org/1999/02/22-rdf-syntax-ns#"
   xmlns:svg="http://www.w3.org/2000/svg"
   xmlns="http://www.w3.org/2000/svg"
   xmlns:sodipodi="http://sodipodi.sourceforge.net/DTD/sodipodi-0.dtd"
   xmlns:inkscape="http://www.inkscape.org/namespaces/inkscape"
   version="1.1"
   id="svg248"
   width="732"
   height="277"
   viewBox="0 0 732 277"
   sodipodi:docname="sarasa-db-newlogo.svg"
   inkscape:version="1.0.2 (e86c870879, 2021-01-15)">
  <metadata
     id="metadata254">
    <rdf:RDF>
      <cc:Work
         rdf:about="">
        <dc:format>image/svg+xml</dc:format>
        <dc:type
           rdf:resource="http://purl.org/dc/dcmitype/StillImage" />
        <dc:title></dc:title>
      </cc:Work>
    </rdf:RDF>
  </metadata>
  <defs
     id="defs252" />
  <sodipodi:namedview
     pagecolor="#ffffff"
     bordercolor="#666666"
     borderopacity="1"
     objecttolerance="10"
     gridtolerance="10"
     guidetolerance="10"
     inkscape:pageopacity="0"
     inkscape:pageshadow="2"
     inkscape:window-width="1920"
     inkscape:window-height="1007"
     id="namedview250"
     showgrid="false"
     inkscape:zoom="256"
     inkscape:cx="730.05041"
     inkscape:cy="276.26437"
     inkscape:window-x="0"
     inkscape:window-y="0"
     inkscape:window-maximized="1"
     inkscape:current-layer="g256"
     inkscape:document-rotation="0" />
  <g
     inkscape:groupmode="layer"
     inkscape:label="Image"
     id="g256">
    <rect
       style="fill:#ffffff"
       id="rect879"
       width="696.49316"
       height="229.58727"
       x="15.01299"
       y="21.673149" />
    <path
       style="fill:#000000;stroke-width:0.999996"
       d="M 0,138.5 V 0 H 366 732 V 138.5 277 H 366 0 Z m 147.49999,69.50962 c 41.2884,-13.20753 64.70411,-54.18561 54.86186,-96.00963 -0.8413,-3.57498 -3.79333,-11.22498 -6.5601,-16.999988 -4.56093,-9.51993 -5.98154,-11.44574 -15.21974,-20.632171 -8.82925,-8.77979 -11.45009,-10.74338 -19.63564,-14.711479 -12.59303,-6.104702 -19.20147,-7.77918 -33.09819,-8.38658 -14.05082,-0.614131 -22.45811,0.679609 -33.464537,5.149629 -23.08953,9.377291 -39.680411,27.613051 -47.3829,52.080599 -4.676462,14.85512 -3.662221,36.63193 2.405778,51.65478 l 2.413781,5.97592 -4.389841,13.68466 c -2.414421,7.52656 -4.398989,14.86704 -4.41016,16.31219 -0.0393,5.08672 1.470121,5.3388 19.381511,3.23682 l 16.355061,-1.91933 3.766239,2.38362 c 5.552421,3.51403 16.979441,8.17536 23.905078,9.75135 9.46414,2.15367 32.14036,1.28663 41.0718,-1.57039 z M 145,184.19951 c -0.82501,-0.26125 -7.80001,-4.18598 -15.5,-8.72163 l -14,-8.24663 -17.278365,2.07029 c -23.505393,2.81642 -23.175562,3.2028 -16.263633,-19.05228 l 4.36158,-14.04341 -5.65979,-15.12854 c -3.11289,-8.3207 -5.659791,-16.47666 -5.659791,-18.12435 0,-4.750568 2.513311,-5.309539 18.612612,-4.139561 l 13.887377,1.00923 11.59267,-11.411306 c 6.92306,-6.81475 12.39144,-11.411321 13.5757,-11.411321 3.37439,0 5.84778,4.004959 10.93157,17.700819 l 4.90006,13.200799 14,5.03905 c 14.6167,5.26101 18.0617,7.59156 16.92347,11.4487 -0.34257,1.16087 -5.94273,7.51063 -12.44482,14.11063 l -11.82197,12 -1.58666,14.83129 c -0.87266,8.1572 -2.01865,15.63849 -2.54667,16.62508 -1.06232,1.98497 -3.71681,2.97352 -6.02334,2.24314 z m 100.97996,-23.28066 c 8.52483,-1.96427 14.02003,-8.36159 14.02003,-16.32163 0,-8.66344 -4.08516,-12.59034 -17.37785,-16.70466 C 231.23743,124.3688 228,121.86883 228,116.60122 c 0,-5.3856 3.48185,-8.76294 9.55884,-9.27189 5.88411,-0.49282 9.15978,0.99168 11.93921,5.41072 1.65937,2.63823 2.64365,3.18951 5.75195,3.22143 3.17274,0.0326 3.74999,-0.28966 3.74999,-2.09345 0,-8.17391 -12.54955,-15.083039 -24.05477,-13.24329 -14.43895,2.30889 -20.19284,19.74253 -9.33481,28.28345 2.25657,1.77502 5.54409,2.96089 18.64498,6.72557 0.96546,0.27745 3.10296,1.63834 4.75,3.02422 2.26879,1.90907 2.9946,3.36253 2.9946,5.99667 0,6.79289 -4.30962,10.34534 -12.55034,10.34534 -3.95451,0 -5.15796,-0.50831 -8.04966,-3.39998 C 229.53,149.73 228,147.47999 228,146.60001 c 0,-1.20001 -1,-1.60002 -4,-1.60002 -3.78911,0 -4.00001,0.16023 -4.00001,3.03874 0,4.58041 6.24812,10.80635 12.53937,12.49488 6.11728,1.64184 7.78017,1.6895 13.4406,0.38524 z m 223.85618,-1.34843 c 1.46513,-0.76552 4,-2.79712 5.63307,-4.51466 2.57384,-2.70698 3.02026,-4.02646 3.35268,-9.90921 0.3704,-6.55536 0.26931,-6.90655 -2.96922,-10.31466 -2.62777,-2.76539 -5.51481,-4.22928 -13.35266,-6.77058 -10.47891,-3.39763 -15.5,-7.00205 -15.5,-11.12674 0,-3.24649 2.62813,-7.44412 5.47206,-8.73989 6.30418,-2.87236 15.79947,0.0548 17.1095,5.27429 0.55903,2.22738 1.1621,2.53104 5.02684,2.53104 4.8056,0 5.06147,-0.46098 2.9977,-5.40031 -4.64954,-11.12791 -24.34979,-13.856018 -33.55859,-4.64723 -4.1026,4.10262 -5.64486,9.05131 -4.47743,14.3667 1.57189,7.15664 5.02863,9.64418 19.50601,14.03689 9.93378,3.0141 12.37845,5.13198 12.37845,10.7238 0,5.78736 -3.69309,9.12819 -10.63963,9.62477 -6.55037,0.46824 -9.6655,-1.04337 -12.31491,-5.97583 -1.77909,-3.3121 -2.42803,-3.72369 -5.87501,-3.72611 -3.83607,-0.003 -3.86862,0.0299 -3.23844,3.24732 1.17718,6.01036 6.54797,10.95502 13.95368,12.84656 4.14945,1.05984 13.13823,0.22823 16.4959,-1.52615 z m -191.21389,-5.07041 2.12225,-6 13.62775,-0.27822 c 8.5205,-0.17395 13.62774,0.0931 13.62774,0.71248 0,0.5449 0.93235,3.48258 2.07186,6.52821 2.04266,5.45951 2.12869,5.53752 6.10699,5.53752 2.79752,0 3.89937,-0.38338 3.59248,-1.25 -0.24345,-0.6875 -5.09763,-14.20884 -10.78709,-30.04743 l -10.34445,-28.79744 -4.49436,0.29743 -4.49437,0.29745 -7.29472,20 c -4.01207,11 -8.8807,24.41323 -10.81914,29.80719 l -3.52443,9.80716 4.24361,-0.30717 c 4.21305,-0.30498 4.25892,-0.35044 6.36588,-6.30718 z M 284,140.58109 c 0,-1.63277 8.95778,-26.70143 9.94493,-27.8313 0.36052,-0.41259 2.84352,5.43741 5.5178,13.00002 2.67431,7.56259 5.06235,14.31269 5.3068,15.00019 0.33756,0.94936 -2.10658,1.25 -10.16254,1.25 C 286.11463,142 284,141.71712 284,140.58109 Z m 53.99999,7.91892 V 136 h 4.47758 4.4776 l 7.27241,12.48266 7.27242,12.48265 4.72108,0.0174 4.72109,0.0174 -7.38392,-12.23562 -7.38394,-12.23563 4.63664,-2.51437 c 5.87377,-3.18525 9.14977,-8.65467 9.1726,-15.31405 0.0193,-5.63763 -1.74036,-9.47647 -5.97868,-13.04278 -4.39081,-3.69462 -8.94052,-4.64565 -22.25486,-4.65197 L 330,101.00069 v 30 30.00001 h 3.99999 4 z m 0,-30 v -11.50002 l 5.75,0.024 c 12.81089,0.0533 17.23069,2.71966 18.01363,10.86785 0.45538,4.73935 0.2636,5.28106 -3.03878,8.58345 -3.48662,3.48659 -3.61805,3.5248 -12.12484,3.5248 h -8.60001 z m 50.92816,36.96247 C 390.06768,152.41685 391,149.47917 391,148.93427 c 0,-0.61942 5.10724,-0.88643 13.62776,-0.71248 l 13.62774,0.27822 2.12224,6 c 2.10697,5.95674 2.15284,6.0022 6.36589,6.30718 l 4.24361,0.30717 -3.52443,-9.80716 c -1.93844,-5.39396 -6.80706,-18.80719 -10.81914,-29.80719 l -7.29472,-20 -4.4401,-0.29523 -4.44008,-0.29522 -10.40904,28.79521 c -5.72498,15.83739 -10.60361,29.35773 -10.84137,30.04523 -0.29914,0.86491 0.81078,1.25 3.6028,1.25 3.9783,0 4.06433,-0.078 6.10699,-5.53752 z M 394.23047,140.75 c 0.24445,-0.6875 2.63251,-7.4376 5.30678,-15.00019 2.6743,-7.56261 5.16125,-13.41261 5.5266,-13.00002 0.91827,1.03716 9.94057,26.45699 9.93814,28.00021 -10e-4,0.9213 -2.7911,1.25 -10.60898,1.25 -8.05596,0 -10.5001,-0.30064 -10.16254,-1.25 z M 498.07517,154.50001 500.36986,148 h 13.22497 13.22498 l 2.33116,6.50001 L 531.4821,161 h 4.22491 4.22489 l -1.98391,-5.25 c -1.09114,-2.88749 -5.9807,-16.275 -10.86566,-29.75 l -8.88171,-24.49999 -4.44553,-0.29848 -4.44557,-0.29847 -10.65667,29.29846 c -5.86118,16.11417 -10.65583,29.63598 -10.65477,30.04847 10e-4,0.41251 1.75254,0.75001 3.89216,0.75001 3.88596,0 3.89276,-0.007 6.18493,-6.49999 z m 4.92484,-13.24598 c 0,-2.22171 10.39776,-29.24017 10.99145,-28.56112 0.81309,0.92995 10.00853,27.01583 10.00853,28.39244 0,0.50305 -4.72499,0.91465 -10.49998,0.91465 -5.77501,0 -10.5,-0.3357 -10.5,-0.74597 z m 103.5,16.89975 c 6.34345,-2.86852 10.00034,-6.34543 13.30872,-12.65378 2.25792,-4.30532 2.62703,-6.26025 2.65675,-14.07071 0.0311,-8.14622 -0.27123,-9.66817 -2.96549,-14.93287 -5.78809,-11.3103 -15.43461,-15.49641 -35.7101,-15.49641 H 572 v 30.10898 30.109 l 14.75,-0.40161 c 12.63482,-0.34401 15.46701,-0.72582 19.75001,-2.6626 z m -26.2681,-26.90377 0.2681,-23.75001 9.1731,0.0752 c 11.77031,0.0967 17.31091,2.61101 21.81797,9.90099 2.737,4.427 3.00785,5.64211 2.99692,13.44525 -0.0101,6.91459 -0.44065,9.3844 -2.22209,12.7339 -4.17196,7.84421 -11.87503,11.34455 -24.96551,11.34455 h -7.33661 z M 666.03005,158.75 c 2.44959,-1.2375 5.46996,-3.77905 6.71189,-5.64787 4.45664,-6.70623 2.11496,-17.00082 -4.75648,-20.91063 -1.63503,-0.93033 -2.95833,-1.9165 -2.94062,-2.1915 0.0177,-0.275 1.47737,-1.40724 3.24367,-2.51607 6.72342,-4.22074 7.40638,-14.98905 1.33572,-21.05973 -4.34985,-4.34983 -8.93191,-5.41205 -23.37423,-5.41862 l -12.25,-0.006 v 29.99999 30.00001 h 13.78811 c 12.31245,0 14.26477,-0.24079 18.24194,-2.25 z m -24.81506,-14.38229 0.28502,-10.86772 5.5,-0.3184 c 15.19644,-0.87977 23.24782,5.07189 19.89033,14.70317 -1.74511,5.00601 -5.18705,6.48321 -16.17537,6.94206 l -9.78502,0.40862 z m -10e-4,-27.11771 0.2862,-9.75 8.57291,0.0191 c 12.28252,0.0271 17.04641,3.70098 15.49847,11.95223 -1.05898,5.6448 -5.01153,7.52047 -15.8576,7.52509 l -8.7862,0.004 0.28622,-9.75002 z"
       id="path262" />
  </g>
</svg>
